/* XPM */
static char *_ec2fd4d41d347a5fd4e654d1407b4ebrHr5bB5TbLZqfB1s[] = {
/* columns rows colors chars-per-pixel */
"50 50 251 2 ",
"   c #170303",
".  c #1C1813",
"X  c #140F0B",
"o  c #270905",
"O  c #380C0B",
"+  c #271709",
"@  c #341B01",
"#  c #371606",
"$  c #291615",
"%  c #361716",
"&  c #300816",
"*  c #3E2505",
"=  c #272318",
"-  c #33231B",
";  c #3B271A",
":  c #3A3C1D",
">  c #312A06",
",  c #1B1A2B",
"<  c #2E1A2C",
"1  c #292725",
"2  c #382925",
"3  c #3D3427",
"4  c #392936",
"5  c #3B3A34",
"6  c #283A28",
"7  c #142016",
"8  c #471D02",
"9  c #481917",
"0  c #571A18",
"q  c #4F0813",
"w  c #492807",
"e  c #562D06",
"r  c #593609",
"t  c #472817",
"y  c #55281A",
"u  c #483419",
"i  c #563718",
"p  c #4E3104",
"a  c #653906",
"s  c #633D19",
"d  c #703D06",
"f  c #511B29",
"g  c #661E2A",
"h  c #422223",
"j  c #472727",
"k  c #582725",
"l  c #443225",
"z  c #4B332C",
"x  c #4C3827",
"c  c #583627",
"v  c #472832",
"b  c #5A2C35",
"n  c #493A35",
"m  c #583837",
"M  c #652B2B",
"N  c #6A2729",
"B  c #77282A",
"V  c #67362A",
"C  c #6A2D34",
"Z  c #652A36",
"A  c #732A32",
"S  c #683337",
"D  c #733234",
"F  c #753539",
"G  c #723929",
"H  c #3C4B2D",
"J  c #3C430F",
"K  c #5A411A",
"L  c #4B4C17",
"P  c #6B471A",
"I  c #774B1C",
"U  c #6E410A",
"Y  c #5B482A",
"T  c #474736",
"R  c #574738",
"E  c #495938",
"W  c #575736",
"Q  c #4C4F2B",
"!  c #664628",
"~  c #69542A",
"^  c #795726",
"/  c #664738",
"(  c #774736",
")  c #675337",
"_  c #755833",
"`  c #784B26",
"'  c #5A663C",
"]  c #766237",
"[  c #676639",
"{  c #372745",
"}  c #393557",
"|  c #372D51",
" . c #3E3667",
".. c #1A2747",
"X. c #463648",
"o. c #5D3545",
"O. c #483553",
"+. c #683544",
"@. c #773A46",
"#. c #443C67",
"$. c #3B4864",
"%. c #494947",
"&. c #574B45",
"*. c #4E5645",
"=. c #59574A",
"-. c #595855",
";. c #4D5254",
":. c #65584A",
">. c #765845",
",. c #645958",
"<. c #744D51",
"1. c #5B6656",
"2. c #59654B",
"3. c #696A48",
"4. c #686759",
"5. c #74675A",
"6. c #6B7658",
"7. c #747A57",
"8. c #7A724A",
"9. c #474667",
"0. c #514C75",
"q. c #636962",
"w. c #766B66",
"e. c #6C7467",
"r. c #777767",
"t. c #797A74",
"y. c #706C75",
"u. c #6C5E62",
"i. c #812B2E",
"p. c #835219",
"a. c #845829",
"s. c #81453A",
"d. c #88663A",
"f. c #8E6430",
"g. c #865350",
"h. c #87795A",
"j. c #8B6C52",
"k. c #877867",
"l. c #857A76",
"z. c #8E6E6B",
"x. c #A6686A",
"c. c #7C815B",
"v. c #77876F",
"b. c #8A836A",
"n. c #86867A",
"m. c #959A7A",
"M. c #8F8E73",
"N. c #A7987A",
"B. c #B09376",
"V. c #9BA279",
"C. c #ADA478",
"Z. c #878354",
"A. c #565786",
"S. c #56628E",
"D. c #73718A",
"F. c #887987",
"G. c #898886",
"H. c #968A87",
"J. c #8A9686",
"K. c #999689",
"L. c #999996",
"P. c #8B9597",
"I. c #A89A8B",
"U. c #A59996",
"Y. c #B09590",
"T. c #97A28C",
"R. c #9AA59A",
"E. c #9DB78A",
"W. c #A9A797",
"Q. c #B7AA98",
"!. c #A9B79A",
"~. c #ACB091",
"^. c #969AA3",
"/. c #AA9CA5",
"(. c #AAAAA8",
"). c #B4AAA9",
"_. c #AAB6A6",
"`. c #B7B7A6",
"'. c #BDBDBB",
"]. c #B8B5B5",
"[. c #B4ACB2",
"{. c #9EAAA0",
"}. c #C4B8B8",
"|. c #CBBBAB",
" X c #C0B08F",
".X c #B0C79C",
"XX c #B9C4B6",
"oX c #B5C4A9",
"OX c #C4CBA8",
"+X c #C8C6B8",
"@X c #D6CDB3",
"#X c #E6D0B8",
"$X c #EAE7B9",
"%X c #B9BAC5",
"&X c #C6BCC5",
"*X c #BCC3C8",
"=X c #C4C4C4",
"-X c #CACCC4",
";X c #C6C9CA",
":X c #CBCBCB",
">X c #C7C6C6",
",X c #D4CAC8",
"<X c #CBD2CD",
"1X c #C4D1C8",
"2X c #D6D4CC",
"3X c #CACBD2",
"4X c #D6CFD7",
"5X c #CDD1D2",
"6X c #D3D4D3",
"7X c #DAD4D3",
"8X c #DBDCDB",
"9X c #D7D8D8",
"0X c #E6D6C8",
"qX c #E2DCDC",
"wX c #E5DAD6",
"eX c #F2D5CD",
"rX c #DCE2DD",
"tX c #D9E5D9",
"yX c #FAF7CB",
"uX c #E3E2DE",
"iX c #E8E6D7",
"pX c #F7E8D6",
"aX c #FDFCD6",
"sX c #EAEED3",
"dX c #DBDDE2",
"fX c #CBDAEB",
"gX c #E5DFE2",
"hX c #F7DEE1",
"jX c #DEE2E2",
"kX c #DDE8EC",
"lX c #D8E4FA",
"zX c #E4E4E4",
"xX c #E9E4E4",
"cX c #E4E5E9",
"vX c #EBECEB",
"bX c #E8E9E7",
"nX c #F1EDEC",
"mX c #F2E7E5",
"MX c #EEF3ED",
"NX c #F9F6EB",
"BX c #E9EBF3",
"VX c #F7EDF5",
"CX c #EEF3F4",
"ZX c #EDFCF7",
"AX c #F3F4F3",
"SX c #FBF5F4",
"DX c #FCFBF5",
"FX c #FDF6FB",
"GX c #F5FBFB",
"HX c #FDFDFD",
"JX c #F5F6F8",
/* pixels */
"ZXGXtXXX9XHXHX7X4XqXFXmXU.z.g.<.g g g g f o.o.o.z.F.|.0XhXFXSXvX=X:XHXFX9X3X4XHXHX4X*XrXHXAX<XXXAXSX",
"tXtXjXFX9XqXgXDX&XU.u.m h v S k B B A Z +.+.o.b f f t m z.7XSX9XvXnX6X8XFXvXvXcXdXgXcXbXzXuXzXMXzXzX",
"9X>XnXnXHX4X,Xl.b +.S @.F S S Z B i.A F +.C A C @.V k 0 % O w.FXHXzX9X<XdXGXBX4X6XJXHXzX-X9XNXHX6X:X",
"FXFXgX:XqX4X<.b g.@.@.N A N N D i.B M S F A A A N k t 9 M j % ,.6X8XGXHX8X3X9XHXHX6X%XzXHXAX6X=XAXAX",
"BXBX3XVX/.v o.<.b Z g N F F N B i.B V V C B i.i.G F F 0 q q h % 4.nX8X9XJX8XvX8XzXzXxXxXbXxXxXuXbXzX",
"3X3XFX[.v <.g.+.Z F D D F B N F B B c S A A i.B 0 8 y 0 0 q & 4 1 [.qX>XbXHXFX>X:XFXHXgX>X7XSXHX9X5X",
"JXBX}.b z.@.@.A F A M N G D D i.B C m S C A i.B G V g q g f & < < n HXFXwX2XqXFXFX,X%XxXHXAX2X=XVXJX",
"[.4X4 o.<.Z @.0 N k y 0 k k k b b m c z c D D B ( k Z f q f f - % - eXhX&X}.&XhXVXnXgXgXzXzXzXxXzXzX",
"XXR._.5 T Q l c R <.>.:.&.=.&.5 2 l &.u V y e N y y k k h % v h 9 o b j h & 2 v F.FXSXgX6X;XHXDX9X;X",
"HXMXoX+X6.T.sX`.N.k.Q.|.!._.R.XX4.M.NXpX|.#XB.Z.Y.j.) * t % t % 9 O % O   v v < $ F.zXzXAXHX1X*XvXHX",
"sXbXbX`.+XNXQ.yXNXQ.R |.XX{.XXoX2.T.aXsXyXyXC.$XyXyX@X+ 8.~ u ) 9 O 9 k f o h   $ $ H.BXvXjXjXvXvXbX",
";X+XNXK.#XNX@XaXaXOXT !.v._.6 J.E.2.yXyX$X$XyX$X$XaX[ L W M.~ ) c 9 f O O % <.U./.y.].AX<X:XHXHXrX;X",
"ZXZXzXXX7.W.sXOXE.Q c.c.E E.1.t.OX3.H ~.@XyX$X$X.X' Q Q C.Z.* L >./ z.+ o 2 2 }.DX7XgXxXJXHX<X:XxXHX",
"ZXkXvXAX5.T 3.6.' b..XE..XE.OX~._.`.M.W 3.>.h.Q H H c.E h.B.[ j.h.2XpXl 2 o $ $ ,XwXqXgXVXvXzXrXbXnX",
"4X%XdXFX-X6.T.7.c.8.[ M.2.W ' 3.&.&.J.M.W.M.5.e.v.v.6 3.@ t ] Y b.+X|.@X`.l.4.4.(.SXFXnX}.;XHXHX8X>X",
"FXFXcX>XbXsX@X~.V.[ C.@XM.+ [ `.- = 1.6 W +Xb.6.1.1.%.n o i * > > > 3 &.m.0XmXDXFXdX4XgXHXHX:X<XvXGX",
"VXCXdX9XuXSXNXiXiX@Xk.R : + ; l j.j.8.k.: c.V.3.c.*.+ m c y r ] ~ > * x @ @ Y.NXVX9XcXBXBXCXtX9XbXAX",
"*X;XvXHXMX'.-XSXHX}.:.l.+ - = h.B.~  X7.: m.c.6.W T % & O 8 a.^ K ; i i i e t :.0XFXFXlX*X>XHXDX6X=X",
"HXGXzX;X9XHXHXuXW.-.w.H.W.n.H.K.h.b.b.b.e.r.3.n   % v +.k i j.L w.l.; ; u p w * k.pX}.xXHXDX-X7XMXAX",
"ZXBXjX9XzXCXnXuX8X'.W.=.H.U.U.K.~.I.U.t.n T j z z.<.o.+.j i ^ w 5.G.+ u i p r p # N.NX,XDXmX7XwXuXAX",
"=X>XbXHXAX=X-XvXHXvX=XU.L.W.l.t.e.t.L.G.}.H.o c k C f Z Z k ] ~ ) Y @ i s a e r w x NXNX}.-XHXHX8X:X",
"AXJXzX5X9XJXGXuXuX9XAXDXzXrXvXAXCX9XrXJXHX/ t G g.x.x.N ( 8 ~ _ _ i # a a a a a ! t 5.wXNXMX1XtXAXnX",
"HXCXrX6XrXAXAXrX;XrXJXHX<X5XvXGXZXjX*XzX0XY i f.a.G s.0 g.( f.^ I d 8 a d e d e p / t &.HXZX<X1XrXJX",
"=X=XzXHXJX=X=XCXHXCX;X=XHXGXvX%X3XGXHXAX5.u K p e 8 G e G s P ^ s a e 8 a d a a r s u n Q.<XDXDX8X:X",
"CXAXbX6XrXZXJXjX5XkXCXBXjX6XzXGXBX5X8X(.3 ) ~ i s w V k ( e d f.! i w a r r a a a P e s t R U.U.uXnX",
"HXHXzX>X6XJXZXrX;XcXHXCX9X5XkXHXDX,XgXu.=.:.x x c # / 9 y e f.^ ) c # i I a r a d 8 V i * t   5.MXAX",
"=X=XcXHXGX:X;XvXHXcX=X5XZXHXkXXX-XNXFX,X,.^.[.U.w.,.X.v o ( a.p.P ! w u _ K r ! i # t c % z @XDX7X5X",
"AXvXzXrXzXbXvXxX5XzXCXMXdX6XcXAXiXwXmXwXVXy.L.L.t.D.O.  z >.a.` I i w @ x / z z h 9 % $ n ).2XwXzXvX",
"HXHXzX;X9XHXHX8X-XbXHXAX9X-XzXDXDX-X,XmXHXH.-.l.1 &X]., & l _ _ ^ P ^ @ + 4 < { { O.X.{ %.FX<X<XnXSX",
"=X>XzXHXJX5X5XbXHXzX=X6XSXHXzX'.2XDXFXgXwXk.k.W.T R.cX9X(.:.R i p p ) 3 4 | 0.A.0.#.#.| 9.fXHXZX9X6X",
"CXvXzXzXuX8XuXxX6XuXnXbXuX9XxXAXCXjX7XDXb.L d.[ J m.DXtX;XL.-XI.U.5.6 , $...A.S.A. .#.< /.JXdXvXzXvX",
"ZXHXzX;X9XHXHX8X,XuXDXMX6X2XzXHXCX9X+XNXc.Z.[ L L V.sXtXR.J.-X+Xt.G.y.%XfX$.S.A.A.| #.{ F.FX4X>XvXHX",
"=X=XxXHXJX=X=XAXHXzX=X6XSXHXbX=X5XJXDX@XH W Q ' : W.iXHXv.L.XXXX*.;.q.D.lX$.S.S. .A.| { D.4XFXFX9X,X",
"vXAXzX9X9XnXvX8XzXzXvXbXzX8XzXbXbX8X2Xr.m.M.M.b.T M.7X7Xt.e.v.e.r.n.1 P.*X9.D.S. ...#.O.D.FXqXxXuXzX",
"FXGXzX;X9XHXHXdX>XzXGXnX9X6XzXHXHXMXv.T.oXoX!.oXn.3 2XtXn._.oX{.`..Xc.t.%X, 9.A. . .| , y.HX-X+XAXSX",
":X:XzXHXJX>X:XAXHXzX:X9XAXHXxX;XP.^.J.oXv.E 6.6.6.*.n.t.v.*XR..XM.E *.v.-.L.9.9.} #.O.{ q.jXMXHX6X6X",
"zXbXbXzXzXzXbX8XgXzXzXzXzXzXzXcXG.;.P.q.*.H 2.*.*.q.5 t.(.n.{.P.~.H v.M.r.v.*.4.5 4 &XgX%XkXkXkXcXzX",
"SXHXcX=X9XHXHX9X=XzXHXAX9X:XxXHXBX(.;.2.*.H 1.5 ,.5 e.[.q.7 _.q.K.K.4.1.r.4.k.).T w.[.gXGXGXfX*XAXJX",
"6X:XzXHXAX>X:XAXHXzX;X9XJXHXzX=XCXR.P.e.e.J.1.r.. = W.G.7 1 {.J.*.G.r.T E :.W.M.n.&.2 -.q.(.HXGX5X5X",
"zXrXgXbXbXzXzXzXzXzXzXzXzXbXzXzXkX<Xq.e.H P.r.T = = w.e.7 = 1.R.L.H q.n.MX_.4.T 5.m - - . 1 *.jXvXcX",
"HXFXzXXX6XHXHXzX'.8XHXHX:X=XzXHXSX6XH.G.L.MXG.X - - 2 - = 3 . 5 %.;.JXCXbX+X&.; j l h j z 2 1 &.zXHX",
";X>XbXHXGX;X=XvXHXAX;X;XHXHX8X6X9XHXGXgX6X8XAX&.3 o x l l l 2 2 X ^.dX>XbXtX3 l ; / c z R z $ $ %.:X",
"bXzXzXzXzXxXzXzXbXdX8XzXxXvXzX8XxXxXvXAXzX,XVXhXY.% t % t # c n { %XmXvXiXNXh.u Y w y ! y % m :.).xX",
"HXHXzX=X6XFXHXgX=X9XHXHX:X=XzXHXFX,X=XqXFXVX,X#Xk.# i y t u Y.#XH.).wXNXiX0XQ.u ! >.c t y 8 / eXNXDX",
"6X:XbXHXJX:X:XvXHXvX:X6XJXHX8X6X8XvXHXrX9XnX}.n c u g._ i w i y w # @ u Q.#X0XpX#XeXj.# ! _ P i +XnX",
"9XgXbXvXbXzXzXgXJXzX6X9XVXJXzX9XrXuXDXcX3XxXr.; c i r e i s i e a I ^ K ~ Y Y M.j.y w P i P ^ ~ ; e.",
"HXHXzX%X6XHXHX9X'.9XHXHX;X=XbXHXHX-X=XBXFXFX%.l u u r i s w p I f.p.I f.I ] ] ~ K i u p P a.a.~ R 2 ",
"6X5XzXHXAX;X:XAXHXvX;X5XSXHXuX:X6XZXGXjX5XzXG.  @ @ # # * @ V j.p.a.I ^ _ ~ ~ ~ ] Y K ! ~ ~ ~ ~ = 5 ",
"8X8XbXJXbX9X8XvXJX8X8XxXbXCXvX9X8XMXMXzX9XMX9X-X).U.W.l.x o - - y y t y x t ; 3 + - % $ 2 - % 2 3 H.",
"HXSX8X;X8XHXGXqX>XzXHXHX:X=XzXHXHX:X=XnXGXvX:X9XHXVXSXqX}.H.5.n ; t t ; t l z R z.H.H.U.).)./.).;XHX"
};
