/* XPM */
static char *_b56e30df6874b99ec06894a393d1fb0M9pOpZaHNEPIr54I[] = {
/* columns rows colors chars-per-pixel */
"50 50 243 2 ",
"   c None",
".  c #160303",
"X  c #17150F",
"o  c #280904",
"O  c #380C0B",
"+  c #271709",
"@  c #331502",
"#  c #341B01",
"$  c #391707",
"%  c #271514",
"&  c #361816",
"*  c #300816",
"=  c #3E2505",
"-  c #272319",
";  c #33231B",
":  c #3D2A1C",
">  c #3A2518",
",  c #3B3B1C",
"<  c #312A06",
"1  c #1B1A2B",
"2  c #2C192E",
"3  c #282725",
"4  c #3C2A22",
"5  c #372827",
"6  c #3C3427",
"7  c #392936",
"8  c #3C3B34",
"9  c #283A28",
"0  c #142016",
"q  c #471D02",
"w  c #481917",
"e  c #571A18",
"r  c #4F0813",
"t  c #492807",
"y  c #562D06",
"u  c #593609",
"i  c #4A2B13",
"p  c #41251B",
"a  c #482717",
"s  c #55281A",
"d  c #4D331B",
"f  c #453416",
"g  c #543315",
"h  c #543B14",
"j  c #54311C",
"k  c #553A1A",
"l  c #5A3918",
"z  c #4E3104",
"x  c #653906",
"c  c #703D06",
"v  c #633D19",
"b  c #491A23",
"n  c #591A2A",
"m  c #4C1E32",
"M  c #661E2A",
"N  c #422223",
"B  c #472826",
"V  c #582725",
"C  c #443325",
"Z  c #4B332C",
"A  c #4C3827",
"S  c #583627",
"D  c #472832",
"F  c #592B34",
"G  c #4A3C35",
"H  c #583837",
"J  c #652B2B",
"K  c #6A2729",
"L  c #77282A",
"P  c #67362A",
"I  c #723929",
"U  c #6A2D34",
"Y  c #652A36",
"T  c #732A32",
"R  c #683337",
"E  c #733234",
"W  c #7A3235",
"Q  c #72353C",
"!  c #75393B",
"~  c #3A4628",
"^  c #3D4F31",
"/  c #3C430F",
"(  c #5A411A",
")  c #4B4C17",
"_  c #6B471A",
"`  c #774B1C",
"'  c #6E410A",
"]  c #5B482A",
"[  c #474637",
"{  c #574637",
"}  c #495938",
"|  c #575736",
" . c #4C4F2B",
".. c #664628",
"X. c #6C542C",
"o. c #65562A",
"O. c #795726",
"+. c #664738",
"@. c #774736",
"#. c #685338",
"$. c #755833",
"%. c #784B26",
"&. c #5A663C",
"*. c #676639",
"=. c #766237",
"-. c #392946",
";. c #372D57",
":. c #393557",
">. c #362D4B",
",. c #3E3667",
"<. c #1A2747",
"1. c #463648",
"2. c #5E3541",
"3. c #433859",
"4. c #683544",
"5. c #773A46",
"6. c #443C67",
"7. c #3B4864",
"8. c #4A4C47",
"9. c #544C44",
"0. c #5A4B45",
"q. c #4D5344",
"w. c #4E5C47",
"e. c #595749",
"r. c #595855",
"t. c #4C5252",
"y. c #675848",
"u. c #765845",
"i. c #655756",
"p. c #785859",
"a. c #71494F",
"s. c #59654B",
"d. c #5C6757",
"f. c #696A48",
"g. c #7A7447",
"h. c #686758",
"j. c #746456",
"k. c #6B7658",
"l. c #727B57",
"z. c #7A6F4F",
"x. c #474667",
"c. c #514C75",
"v. c #596163",
"b. c #646B61",
"n. c #766A63",
"m. c #6D7466",
"M. c #767866",
"N. c #7B7C74",
"B. c #777674",
"V. c #6A6F75",
"C. c #812A2D",
"Z. c #802E30",
"A. c #835219",
"S. c #845829",
"D. c #81453A",
"F. c #88663A",
"G. c #8E6430",
"H. c #895948",
"J. c #81515C",
"K. c #844550",
"L. c #87795A",
"P. c #8B6C52",
"I. c #877966",
"U. c #857A76",
"Y. c #916F6A",
"T. c #A6686A",
"R. c #7C815B",
"E. c #7C876B",
"W. c #7C8577",
"Q. c #6E876C",
"!. c #888369",
"~. c #948868",
"^. c #87867A",
"/. c #89957A",
"(. c #949878",
"). c #8F916E",
"_. c #A7987A",
"`. c #B09376",
"'. c #9BA279",
"]. c #ADA478",
"[. c #878354",
"{. c #585987",
"}. c #4F5182",
"|. c #56628E",
" X c #6F728E",
".X c #898885",
"XX c #998D85",
"oX c #8A9685",
"OX c #989789",
"+X c #999796",
"@X c #8B9597",
"#X c #AA9A8B",
"$X c #A59997",
"%X c #AD958D",
"&X c #96A38B",
"*X c #9AA69A",
"=X c #9DB78A",
"-X c #A5A489",
";X c #A8A895",
":X c #BAAD97",
">X c #A9B79A",
",X c #B6B99C",
"<X c #AAB58C",
"1X c #969AA3",
"2X c #9EAAA0",
"3X c #A9B5A6",
"4X c #B7B7A7",
"5X c #B1ACA9",
"6X c #C4BAA6",
"7X c #C8BDBB",
"8X c #C0B08F",
"9X c #B0C79C",
"0X c #B8C4A6",
"qX c #B9C6B7",
"wX c #AEC3B2",
"eX c #C4CBA8",
"rX c #D9C9A9",
"tX c #C9C7B7",
"yX c #D8D5B6",
"uX c #E6D0B8",
"iX c #E9E6B8",
"pX c #F0ECBD",
"aX c #B7B9C6",
"sX c #C3BCC3",
"dX c #BDC6D7",
"fX c #C6C9C5",
"gX c #DBD9D5",
"hX c #D7CFC4",
"jX c #E5D7C8",
"kX c #EAD9D3",
"lX c #DAE2D7",
"zX c #FAF7CB",
"xX c #E9E6D6",
"cX c #F7E9D5",
"vX c #FDFCD6",
"bX c #EAEED3",
"nX c #D2DCEB",
"mX c #DCE4F0",
"MX c #EAE8E8",
"NX c #FEFEEC",
"BX c #FAF7E6",
"VX c #FDFBF7",
"CX c #F2EFE8",
/* pixels */
"                        $XY.      M M n m                                                           ",
"                  $Xp.1.> F R V T L T U 2.4.4.      s H                                             ",
"              U.2.F Q 4.4.Q U J L C.T ! Q U U Y a.S s a q &                                         ",
"            a.F K.K.W K T K J T C.L K P Q T T W s J e w K N &                                       ",
"          7 4.a.F K M K ! E J L C.L V P E T C.C.I ! ! e r e 5 2                                     ",
"        D p.J.4.Y Q ! E W L K W L L P R T L C.L e q s e r r * D 3                                   ",
"      H Y.a.W T W E J K E W L W T U R H U T C.L I P n r M n * & 5 G                                 ",
"    7 2.a.Y Q n K V b s V s F F F H G S S E W L @.V J n r b m 2 % &                                 ",
"  *X5X~ [ { C A R u.p.a.0.y.9.8 5 4 0.A P s e v s s V V w & D B b o F b                             ",
"      qXk.&XbX4X(.I.:X6X;X3X*XqXh./.NXcXrXuX`.L.%XP.#.> : & p & w O & O . D                         ",
"        tXvX:XzXNX:X{ 6XqX*XwXwXs.-XvXiXpXzX].iXzXzXrX+ z.o.f #.w O w B b o D                       ",
"        hXNXyXvXvXeX .>X/.3X9 oX&Xs.zXzXzXiXzXiXpXzX*.) | ~.o.X.S w s O O & a.                      ",
"          :XjXeX<X^ R.Q.} 9Xd.E.qXf.~ <XyXzXpXpX9X&.^  .].L.z ) u.+.Y.O o 5 5                       ",
"            k.l.&.E.9X=X9X=XeX;X,X4X/.&.f.u.z.| ~ } R. .L.].=.g.L.jXBX> & + %                       ",
"              l.R.f.*.).&. .| f.e.q././.;X).z.M.Q.Q.9 h.# i $.] !.tX6XhX4X^.j.                      ",
"                ].*.-XrX~.+ f.6X& - b.- { tX!.d.b.d.8.G o j = < < < 6 | XXjXCX                      ",
"                    I.{ , + > C P.P.z.!., R.'.f.k.} + H S j u =.o.f = k @ # %XVX                    ",
"                      ^.+ ; - I.`.X.:XL.6 (.E.l.e.{ * & @ q S.O.k , d g y i a u.jX                  ",
"                              XXL.L.!.I.k.M.h.{ . * D 4.V j P.) n.U.> : k z = = I.cX                ",
"                                    $XN.[ G : Z Y.p.Y 4.V k O.t j..X+ d h z u z # _.                ",
"                                        tXXXo V V R n Y F j =.X.#.] @ l v x y u t A NX              ",
"                                        VX0.i P H.T.T.R ! q X.$.$.h @ x x y c x ..a j.              ",
"                                        jX] u F.D.I Z.e H.@.G.O._ c q c c y c y t +.: 0.            ",
"                                          d l z x q v s I v ` O.v x y q x ' x x u v d A 5X          ",
"                                          #.] h v t I V @.y c F...j t u x u x x c _ y S a           ",
"                                          f.A H A @ +.& s u G.S.X.S # l X.x x x c q v j =           ",
"                                          $X5X$XB.a.1.D o I S.` _ ..i g X.( u ..g @ a S >           ",
"                                            +X+XB. X1.. D u.S.A._ h t @ S +.C Z N N & & G           ",
"                                            i.^.7 aXaX1 % C $.O.O._ O.# + D -.-.-.1.1.-.            ",
"                                          !.!.;X^ +XlXgX5Xi.{ ] z z #.6 7 ;.6.}.c.6.3.3.            ",
"                                          ) g.*./ (.NXlXfX+XtX#X#Xn.3 1 :.<.|.|.}.;.6.2             ",
"                                          [.o.) ) '.CXlX*XoXtXfXB.oXV.dXnX7.|.|.}.;.6.-.            ",
"                                          s. .| / :XxXVXN.+XqXqXq.e.v. XmX7.|.|.,.}.;.              ",
"                                          )./.!.[ /.gXgXW.m.W.k.N.^.- @XdXx. X|.6.<.x.:.            ",
"                                        0X0X>X4X^.8 hXgXW.3XwX>X0X,XQ.B.aX1 x.}.,.,.;.2             ",
"                                        E.} k.m.k.8..XN.W.qX*X3X). .&.W.r.+Xx.x.;.6.3.7             ",
"                                        8.^ s.w.q.h.8 B.3XW.2X@X;X~ M.oXM.W.e.b.8 5 sX              ",
"                                        w.^ d.~ d.8 V.5Xv.0 3Xb.OXOXh.s.l.h.M.:X{ B.4XgX            ",
"                                          oXd.m.0 - ;X^.0 3 *XoXw..XM.[ } r.;XXX^.0.5 i.r.          ",
"                                            M.G % - B.n.3 - d.*X+X^ b..XCX4Xh.[ n.H - 5 % 5 t.      ",
"                                              X ; ; 4 ; - 6 X 8 8.t.VXCXMXtX9.4 4 B N B Z 5 5 8.    ",
"                                              0.4 o Z C C C : 5 . 1XmXfXMXxX6 C : +.S C { Z % %     ",
"                                                ;X& p = a @ S H >.aXMXMXlXcXI.f ] t j P a p H i.    ",
"                                              hXY.$ V j i d %XjXXX5XkXVXbXjX:Xa ] u.P i j $ @.      ",
"                                              G A d H.X.g t j i a # # f :XuXjXcXuXjXP.q v $._       ",
"                                              : S l g y l l g y y ` %._ X.] ] ~.Y.a t ..v _ O.X.    ",
"                                            9.C d d u v _ t u X.G.A.O.G.o.=.$.o.l l z z _ =.S.      ",
"                                              . + # @ @ q $ ] H.A.S.` ` O.o.$.o.=._ ( ..X.X.        ",
"                                                      U.A o ; > i j s d A f > p + : &               ",
"                                                            j.G > a p p p B Z 0.                    "
};
