/* XPM */
static char *aeb8601943554234cdd4049811520c8fD4OLonznvuWvQpC8[] = {
/* columns rows colors chars-per-pixel */
"50 50 196 2 ",
"   c None",
".  c #050300",
"X  c #0A0C00",
"o  c #130D01",
"O  c #1C0D00",
"+  c #0F1300",
"@  c #0F160E",
"#  c #141102",
"$  c #1B1401",
"%  c #1D1B02",
"&  c #191208",
"*  c #191D0C",
"=  c #221500",
"-  c #241D01",
";  c #2C1E00",
":  c #211C0A",
">  c #272303",
",  c #2C2205",
"<  c #24240A",
"1  c #2B240B",
"2  c #292A0C",
"3  c #332402",
"4  c #332A0D",
"5  c #342A08",
"6  c #262915",
"7  c #2C2B14",
"8  c #222419",
"9  c #27291B",
"0  c #2B2D1A",
"q  c #272312",
"w  c #342B14",
"e  c #362E1C",
"r  c #2E3116",
"t  c #323215",
"y  c #3B3213",
"u  c #3D3A16",
"i  c #37321F",
"p  c #3A351A",
"a  c #2D2D21",
"s  c #322E22",
"d  c #283023",
"f  c #263121",
"g  c #353223",
"h  c #363925",
"j  c #3D3A23",
"k  c #343629",
"l  c #353B2B",
"z  c #3C3B2B",
"x  c #3A3321",
"c  c #3D3D31",
"v  c #422F07",
"b  c #42340C",
"n  c #433713",
"m  c #483610",
"M  c #433A15",
"N  c #443B1C",
"B  c #4C3F1B",
"V  c #463916",
"C  c #423D22",
"Z  c #493E28",
"A  c #443D2B",
"S  c #3F482D",
"D  c #3A432E",
"F  c #4B421C",
"G  c #53431C",
"H  c #59471D",
"J  c #4B4423",
"K  c #43422B",
"L  c #4A442A",
"P  c #4D4A2E",
"I  c #504823",
"U  c #584A25",
"Y  c #544B2B",
"T  c #514428",
"R  c #5C522A",
"E  c #57512D",
"W  c #444434",
"Q  c #4D4B36",
"!  c #49483C",
"~  c #524B33",
"^  c #534C39",
"/  c #56543C",
"(  c #59553C",
")  c #58583A",
"_  c #65532B",
"`  c #68572C",
"'  c #635227",
"]  c #615B34",
"[  c #6B5C33",
"{  c #615B3F",
"}  c #6A5B3B",
"|  c #625439",
" . c #69633F",
".. c #79663E",
"X. c #484B41",
"o. c #444B43",
"O. c #4B5246",
"+. c #545344",
"@. c #5C5643",
"#. c #5C5B46",
"$. c #54554B",
"%. c #57594A",
"&. c #5E5D4C",
"*. c #555A43",
"=. c #505A51",
"-. c #5A5C51",
";. c #635D43",
":. c #645E4C",
">. c #6A5F43",
",. c #5B6252",
"<. c #6C6542",
"1. c #64614D",
"2. c #686049",
"3. c #6D6B49",
"4. c #766F4A",
"5. c #766948",
"6. c #7C724C",
"7. c #636254",
"8. c #606956",
"9. c #69655B",
"0. c #676B5F",
"q. c #6A6C5E",
"w. c #716D5B",
"e. c #6C725B",
"r. c #6F7456",
"t. c #7F7657",
"y. c #6D6C63",
"u. c #687162",
"i. c #7B7B65",
"p. c #7C7B6B",
"a. c #777767",
"s. c #767B74",
"d. c #7A7A70",
"f. c #85764D",
"g. c #837B56",
"h. c #8E7F5E",
"j. c #857957",
"k. c #807E67",
"l. c #847B65",
"z. c #847D77",
"x. c #7F8169",
"c. c #7D8775",
"v. c #8D845D",
"b. c #93845D",
"n. c #8D856B",
"m. c #9B8B68",
"M. c #8D8777",
"N. c #868A7A",
"B. c #8B8C7C",
"V. c #8A867A",
"C. c #908B78",
"Z. c #8F907E",
"A. c #9E947B",
"S. c #A08D63",
"D. c #A6956A",
"F. c #A29970",
"G. c #B09E76",
"H. c #A3A07F",
"J. c #8B8C83",
"K. c #8E8F89",
"L. c #9A9984",
"P. c #979F88",
"I. c #9C9489",
"U. c #9C9D98",
"Y. c #A89D81",
"T. c #9DA08D",
"R. c #9AA499",
"E. c #BDB084",
"W. c #A3A798",
"Q. c #AAAC9C",
"!. c #A9A898",
"~. c #BABA9E",
"^. c #ADAEA4",
"/. c #A5A6A0",
"(. c #ACB3AB",
"). c #B7B6AB",
"_. c #B8BAA9",
"`. c #BCBEB1",
"'. c #C5B693",
"]. c #CEC197",
"[. c #C2C3BB",
"{. c #CCCEC2",
"}. c #CCD2C6",
"|. c #D5D5C9",
" X c #D9DAD2",
".X c #EDECCE",
"XX c #E4E4D8",
"oX c #EDEFE1",
"OX c #F3F4E6",
"+X c #F3F5EB",
"@X c #FBFCED",
"#X c #F6FDED",
"$X c #F6F7F1",
"%X c #F7F8F3",
"&X c #FCFDF4",
"*X c #FFFFF9",
/* pixels */
"                                                                                                    ",
"                                                                                                    ",
"                                                                                                    ",
"                                                                                                    ",
"                                                                                                    ",
"                                                                                                    ",
"                                                                                                    ",
"                                                                                                    ",
"                                                                                                    ",
"                                                                                                    ",
"                                                                                                    ",
"                                                                                                    ",
"                                                    1.r.                                            ",
"                                            ~ I n.    !.#.N.                                        ",
"                                            F 4.v... .C < &.oX                                      ",
"                                      g i >  .R  .% u r n.Q.q.+X                                    ",
"                                      7.( 4 L 3.r r.8.D 8.u.8.XX                                    ",
"                                    X.L w N p p % S x.c.f D #X%X                                    ",
"                                  :.o ~ Y.<.V n 2 2 r T.c.0.&X+X*X$X*X*X%X                          ",
"                                V.e L | h.m.n V y P ) e.x.6 P.Z.!.{.J.J.&X*X                        ",
"                              W q : B j.h.G._ ; F 3.< . < *./ Q %.%.-.q.K.*X                        ",
"                              & Z w Z 3 f.S.D.v F t.F K h Q ( w.h O.D k $./.&X                      ",
"                            X.c ^ - Y b v H _ _ u P .XK # A x : 7.+.X $.X.*X                        ",
"                            8 c A 1 Y ; = [ f.f.g.{ j i.B.q : w.c W 8 9 [.%X                        ",
"                            ^.a * 2 ; J m , U ] H.~.r `.#X`.}.OX).6 B.}.*X                          ",
"                            *XQ.h j 1 > n - - E { < D c.}.*X&X  &X X&X+X                            ",
"                              &X@XK # - > I M % < Q ,.u.o.(.*X                                      ",
"                            *X@XP.< 2 , # $ > ) t *.Q.R.=.O.                                        ",
"                            -.k A 7 L <. .5 # 3.) + O.d @ s.                                        ",
"                          *X Xk 0 ) t.4.v.F.R . C #.* X.s.                                          ",
"                            *X@XK > p 6.].E.R M 2 ) 6 W.                                            ",
"                          *X|.*.j $ 5 F H m b v.6.- p.                                              ",
"                          XXg O w ; 3 O ; _ H h.'.j.l.                                              ",
"                      !.I.g C e N >.5.U m v _ h.'.5.>.                                              ",
"                    z.& $ : C C ;.T >.f.O B U } f.4 l.                                              ",
"                    s g x ^ O : : w A 4 O n B m n p n.                                              ",
"                    p.z @.( C P :.@.i.  A.o ; 4 ; 1                                                 ",
"                      g 1.Q L             j e ~ :.;.:.                                              ",
"                      7 K k.w L.          !.$ Q :.C.M.7.9.                                          ",
"                      ).0 D / g U.          o z +.g 9.  +.!                                         ",
"                        ).q.7.y.            d.y.a.7.q.y.y.                                          ",
"                                                                                                    ",
"                                                                                                    ",
"                                                                                                    ",
"                                                                                                    ",
"                                                                                                    ",
"                                                                                                    ",
"                                                                                                    ",
"                                                                                                    ",
"                                                                                                    "
};
