/* XPM */
static char *_8e9f6e2e2ae47e2a44989d41b649306TyocYiUNcEbNfroh[] = {
/* columns rows colors chars-per-pixel */
"50 50 216 2 ",
"   c None",
".  c #150E01",
"X  c #141100",
"o  c #1A1402",
"O  c #1D1B03",
"+  c #1D1B0A",
"@  c #1B1308",
"#  c #141412",
"$  c #1A1A18",
"%  c #231C01",
"&  c #231E0B",
"*  c #201300",
"=  c #231E12",
"-  c #252402",
";  c #2C2300",
":  c #25220D",
">  c #2B240C",
",  c #2C280D",
"<  c #2A2C02",
"1  c #342E0F",
"2  c #392802",
"3  c #2E3001",
"4  c #34350D",
"5  c #3D3C0C",
"6  c #393807",
"7  c #262412",
"8  c #2A2513",
"9  c #2D2B15",
"0  c #2C2619",
"q  c #2C2C1A",
"w  c #332D14",
"e  c #322E1B",
"r  c #382D11",
"t  c #2F301E",
"y  c #3A3514",
"u  c #373B12",
"i  c #3C3D13",
"p  c #34321D",
"a  c #3C361C",
"s  c #3D391D",
"d  c #353817",
"f  c #2F2D22",
"g  c #342F27",
"h  c #343323",
"j  c #3A3523",
"k  c #373924",
"l  c #3D3B25",
"z  c #37332B",
"x  c #393728",
"c  c #3D3C2B",
"v  c #36382B",
"b  c #3C3B34",
"n  c #3A3A38",
"m  c #422B08",
"M  c #493907",
"N  c #563B0E",
"B  c #413C16",
"V  c #413D1D",
"C  c #413117",
"Z  c #523C19",
"A  c #423D23",
"S  c #443D2A",
"D  c #4B3C2D",
"F  c #413F32",
"G  c #3D4708",
"H  c #3E4028",
"J  c #3F4031",
"K  c #45480A",
"L  c #434314",
"P  c #45441C",
"I  c #464A17",
"U  c #56461A",
"Y  c #4B501C",
"T  c #52541B",
"R  c #5D521D",
"E  c #504608",
"W  c #684B18",
"Q  c #63521E",
"!  c #444224",
"~  c #4A4324",
"^  c #4D4B24",
"/  c #45432B",
"(  c #4B442B",
")  c #4D492A",
"_  c #464B23",
"`  c #524C2E",
"'  c #514A20",
"]  c #535423",
"[  c #54552E",
"{  c #59592B",
"}  c #454334",
"|  c #4A4534",
" . c #4D4A35",
".. c #43423B",
"X. c #4A4539",
"o. c #4C4B3B",
"O. c #524C34",
"+. c #524C3A",
"@. c #504234",
"#. c #555232",
"$. c #54523B",
"%. c #5B543C",
"&. c #5C593B",
"*. c #5A5A35",
"=. c #634C2C",
"-. c #684F27",
";. c #605F2B",
":. c #695525",
">. c #765A27",
",. c #625C3E",
"<. c #6C5438",
"1. c #775D34",
"2. c #5D6228",
"3. c #64642B",
"4. c #63692D",
"5. c #6B6A29",
"6. c #616632",
"7. c #6E693C",
"8. c #686C37",
"9. c #786D39",
"0. c #76783D",
"q. c #737136",
"w. c #706724",
"e. c #4B4B40",
"r. c #464541",
"t. c #524C41",
"y. c #5A4F49",
"u. c #4F5143",
"i. c #535245",
"p. c #5D5A44",
"a. c #5A594B",
"s. c #5B5447",
"d. c #5C5C54",
"f. c #625C42",
"g. c #635B4C",
"h. c #625F58",
"j. c #5E6052",
"k. c #5D6148",
"l. c #666244",
"z. c #67634C",
"x. c #6C654E",
"c. c #68674B",
"v. c #736B4E",
"b. c #7C7C45",
"n. c #787549",
"m. c #6B6B55",
"M. c #6E6E5B",
"N. c #666454",
"B. c #736D51",
"V. c #736C5B",
"C. c #776853",
"Z. c #7A7455",
"A. c #7A745A",
"S. c #777959",
"D. c #7D7B60",
"F. c #78766A",
"G. c #797872",
"H. c #6B6B63",
"J. c #896E38",
"K. c #92783F",
"L. c #866D45",
"P. c #927C47",
"I. c #8C7958",
"U. c #877A57",
"Y. c #917B52",
"T. c #807E74",
"R. c #7F8444",
"E. c #7F8754",
"W. c #7F836C",
"Q. c #88874B",
"!. c #8B914A",
"~. c #888359",
"^. c #9C8555",
"/. c #8F9358",
"(. c #93935B",
"). c #979A59",
"_. c #AC975B",
"`. c #8A8365",
"'. c #8A866A",
"]. c #968D6F",
"[. c #9F9E66",
"{. c #898878",
"}. c #948E72",
"|. c #9A9679",
" X c #AD9562",
".X c #A89B67",
"XX c #B89D6E",
"oX c #A39D7D",
"OX c #A9AE6B",
"+X c #A8A967",
"@X c #ADB36D",
"#X c #B0B271",
"$X c #ADA574",
"%X c #C9B378",
"&X c #C4A66A",
"*X c #BCC278",
"=X c #C2C97B",
"-X c #8A8983",
";X c #918E85",
":X c #9A9A8A",
">X c #9D9A92",
",X c #A69F85",
"<X c #A7A083",
"1X c #A7A497",
"2X c #B8B298",
"3X c #B6B6AD",
"4X c #B7B6B1",
"5X c #C1BF8C",
"6X c #BFC0BB",
"7X c #CDD38A",
"8X c #D6D69A",
"9X c #C2C1BC",
"0X c #C8C1A7",
"qX c #E6EAA0",
"wX c #CFCECA",
"eX c #EBECE4",
/* pixels */
"                                                                                                    ",
"                                                                                                    ",
"                                                                                                    ",
"                                                                                                    ",
"                                                                                                    ",
"                                                                                                    ",
"                                                                                                    ",
"                                                                                                    ",
"                                                                r.                                  ",
"                                                            e.  N.i.>X>X                            ",
"                                                          b V.l.+.p j j X } T.                      ",
"                                                        d , _ 6 S.A.p.O.O./ +.V.                    ",
"                                                    7X!.K 4 y { '.|.c.l.` A f.A f i.                ",
"                                                <X5XqX=X0.< D s.Z.`.6.r ~ Z.) V : 0 H.              ",
"                                              n.5 7.Q.#Xb.^ S @.! A ) ].].v.y % O c b 6X            ",
"                                            ~._.n.R 3.b.(.I 1 > +.'.2X0X<Xx.a d  .$.G.              ",
"                                        f.Z 2 Q _.%X_.q.0.L ` <.,.v.`.I.Z.y / c.$.i.                ",
"                                    y.@.]..X:. X&X%X1.6 3.T B 1 ` ~ ` D ~ Z.&.s 9 X.                ",
"                                    D <.>.P.^.J.J.J.W Q R B ; ; r P ` y ^ ,.s w , c 3X              ",
"                                    =.L.N W >.M W J.m M 9.$X~.7.B 5 %.v.U.&.%.A w x T.              ",
"                                  C.I.1.1.L.1.XX XW m N >.R q.{ : B ( Z.oXZ.f./ , k -X              ",
"                                  O.Z Z -.Y.I.L.Y.-.-.-.U M Q.).G ^ ` Z.|.`.,.) , h h.              ",
"                                  w ; 2 % * x.V.I.I.U P.P.E K (.~.P ^ c.].].%.( s p f 6X            ",
"                                G.@.v.l.V.g.D D C C Z _.%Xw.).4.B.L ` v.`.|.` j ! 0 z 3X            ",
"                                s.& 0 , e e h S r 2 U (.5.+X8Xb.1 V y ,.A.}.p.A | e q 6X            ",
"              $ J t k k X.J }   g & > e > & : X = o 1 L { [.3.P ) a s s A.x.x.A p h } ;X            ",
"            n $ p t q k / H $.o. .| e e e 8 : 7 = = . * L B P %.$.%.( V ,.f.].a p 8 b b             ",
"            n # t v k q  .N.k.h j e e 8 0 h v c F g f . o % 1 a f.p.A.O.B.%.l.A.p.: + ..            ",
"            n # 9 q q 9 9 h h /  .O.j O t 7 + t v h : O - ^ ! ! s '.A.v.( l.%.f.p./ 7 d.            ",
"            G.# 9 t t q t l + q 0 8 e }  .: 7 p M.N.*.u L ] i )  .Z.:XA.( p.@.( X.H c 4X            ",
"                              J h + l M.m.9 O 9 u.$.[ G 4.T 3 - w g.1Xf.S S j w k h ..{.            ",
"                                  h O p l H d - : O 3 T @XR.6 O > y g.V.@.. : > 0 h s.n             ",
"                                    *.4.2.6.6.4 v u.*.).*X!.G . O @ t.g.g.w > 0 0 0 b o.eX          ",
"                                    m.{ 8.I n.[     S.R.7X@X*.< O . 0 s.%.w 0 g.O.i.e.o.            ",
"                                      _ Y G u D.    3X*.).OX8.y * . @ +.%.O.j V.%.X.h -X            ",
"                                        4 < d         :X] R.8.- = z z X.z.l.+.g.p.e h wX            ",
"                                        G u k           [ I G w G.      t.N.N.D q h :X              ",
"                                      {.c.I J           :Xd P _ S       3XN.x z ..;X                ",
"                                      E.4.G k >X          |.#.8.O.c.        1X>X                    ",
"                                  j.H Y G G G m.          M.E.OX4.s {.                              ",
"                                  d.u.u.i.a.u.:X          k.S.E.8.P H                               ",
"                                                          {.W.S.W.F.{.                              ",
"                                                                                                    ",
"                                                                                                    ",
"                                                                                                    ",
"                                                                                                    ",
"                                                                                                    ",
"                                                                                                    ",
"                                                                                                    ",
"                                                                                                    "
};
