/* XPM */
static char *fa59d7ca18154c74ff8da94ba11f2a1drx9mLwiApqVD35Dm[] = {
/* columns rows colors chars-per-pixel */
"50 50 70 1 ",
"  c #9F8347",
". c #A7894C",
"X c #AA8C4C",
"o c #B0964B",
"O c #AC8F52",
"+ c #AF9454",
"@ c #B29554",
"# c #B59A55",
"$ c #B99B56",
"% c #B3975A",
"& c #B69A5B",
"* c #BA9D5D",
"= c #BBA157",
"- c #B6A05D",
"; c #BDA25D",
": c #BFA95D",
"> c #AF9B60",
", c #B69D64",
"< c #BB9E62",
"1 c #B59E68",
"2 c #BE9E69",
"3 c #B7A165",
"4 c #BDA263",
"5 c #BFA865",
"6 c #B6A06A",
"7 c #BDA46A",
"8 c #BFA96B",
"9 c #BEA571",
"0 c #BFA873",
"q c #C2A55D",
"w c #C3A95E",
"e c #C29F65",
"r c #C29F69",
"t c #C2A565",
"y c #C9A767",
"u c #C5A965",
"i c #C9AC65",
"p c #C3A66A",
"a c #C5AA6B",
"s c #CAAC6C",
"d c #C7B166",
"f c #CBB166",
"g c #C6B16F",
"h c #CCB16D",
"j c #D1B36D",
"k c #C1A671",
"l c #C8A774",
"z c #C5AC73",
"x c #CBAE72",
"c c #CAAD7A",
"v c #C6B171",
"b c #CDB172",
"n c #CDB37B",
"m c #CEB87C",
"M c #D1B474",
"N c #D4B975",
"B c #DABA77",
"V c #D2B579",
"C c #D8B679",
"Z c #D5B97B",
"A c #D9BB7C",
"S c #CFB582",
"D c #D2B582",
"F c #D5BB82",
"G c #D9BE84",
"H c #D6BA88",
"J c #DEC283",
"K c #E1C584",
"L c #E3C68C",
"P c #E7CB8C",
/* pixels */
"agha837a7,pkzz69688637p788nz3,ka11kcz066>881,6aazs",
"dsgap7kz4<76696010zz828n99za81z9p139k09z300zp2abMc",
"dudgaaznz178zc8zk0kkkkkzczzknznxp39cSn003azzzplbxb",
"uuuaazczp5nFJH968nva7pkl7a97bbaakkmJHS9ppba5ryxyaa",
"=wuupbzpatp4<35a7zvpt7723za4xbaauttp743agbh54ee*ac",
"=;u;taapaasbbbsabhhhba<*&pp*putususaagdhahbbs4;;ey",
"tuuutaaassuabNVsthABjuiMasitssussussMNba5bbZMsjjyy",
"gsuauuahuattasbi+;uwifjNhuuusqtssu<*aVst-uptssNMys",
"uq;typpassxMhbVMCbxx*sMjw=wtuqtstbCxxxCVxbg5;jjwtt",
"wqquaxaeyayassVMxAAA$;$$iuutssypussxxMxxVAZJ@q$qtt",
"$typerpsMs<*axu%pxs$*Ci$=qatuexVMxt2yse$ts4+%jqwyy",
"ssuerlcxsMcysbxx$sJ@$ysyMau;teaxsxApAnVtaCV.sMsisy",
"yuq<rcVcsVb44asxt*hqMMtqxuteacMVMhx+paMu&<a4pbyysb",
"ssht221&**$#thMsutashMijsys<<$**3;;pxVMsbhaaxstuhx",
"uw;uacxpashgsssuNNsspssysssuxsxptgxxptaxhMs4syhsss",
"=wuu<epshsuausy$3;paCMMh*tsuyuxsbaapxat$;4aVbbAeys",
"whsjMaelaMsbNZNt;:#-avt5hMssNsthahbvNNht;#&8xpptjM",
"fiiuttt<M$&Mgtt@ta535;4ashCV4ts;s$=htas*dtup<*tMis",
"wwst.Oxstt@@4ayausdgsseaNta5.@syy*@*sttsatpbxatiis",
"wwua*pbphhMMuusstt;4puyspva,,axphjMMsssih4&pssiwii",
"du;tsxa*jCJM<*;;;4*;ttta8a7ana2tBBCse*te5<3tt4ufwi",
"wduut$ey*yeO*t*tuttshyatpaa72tatts*@e<*x55passiqff",
"widgutuiyO*yxatistqtyyupa8abt2ss@@*sssspaattshiwjj",
"wiii;thhtsyess;g*qsseeusahxp<eastyauxs<t&abp*tifjM",
"ftiisjbss*%exp4zptxpcpcxzapagsuhi$;abtacuscxaxMxyh",
"uiiqiMsxsyyGLF75asz7ptax78pahjhsstMKPVx7tbsb<tassy",
"oif;axpcaapapp3a<bba7p343zaushsuueuaa2tptMxpa4sexs",
"oqw;tsaspapaasah5bxk84*4<45*usyuuaysaasztn4xat**ee",
"iquuacsaslpbVGMsasnZFvpbaautiaussyyxVAVabvZbJ*shxx",
"juisuasxct4tuxbx&<a8ahvbbsyssuyssptp7xxz-phayMCBxs",
"w=tttt2szpbssaVbscv5%aBM***quaasaxxbabMVtab4eCBjqe",
"uq*<xM<tatbsVsAbCMbF<**;tyqtsypptasVsnbnAMVM$y$yjj",
"=qqtt*tajsu&24p&axxr@su#;;sttttMxye<t553ssM2*yq$wy",
"ufittetissb4aMmt$bbO$xtatui;*ssxxbxuhbh&*NxXtByjis",
"iiitushMsMM;tsbg*tM*lbtausa*esbMhbstsssu;ss*jjqfsy",
"usi;44;;;;;$tuhNy*ytxbppssu;tq**u;*$usbjituhyqqfjj",
"iMhssut4utuuhsgiMAMtpa55sMsssituu5tahshsjNbtyiwjjj",
"=uausshbbxsauauotatMbVVh$siuisMjvdhssau#figdjBjqiy",
"ufhhxxxchaxsMVAi<@$ccss;ijhsssssMabcbbN==o;hjfjwfj",
"wfjnxa7ab-pVbss$sbp@4$%ssjiMhttsx<zMcii#ig;*u$#fjM",
"dfap% lxh%X@*4pcttpVnstasuy;.@aa7%O%;47autsbbptajj",
":gat**crphxsssxncs<<pMatuyse@tbttbbxbcsxbt&2ssusij",
":ustrcceNNKAa*tp*<<p<pyxayaptss<VbVVp<pa51<4utujsf",
"utapyprrtbu@@*2pa42pxsypssyyateesMs%*p22pppyssssss",
"uiial,lcpO@uatalazp<pxy*yssuu*<s&.@pzpczlprpssyssa",
"wgnaz2HDpapaMxt2<7spe2yxaxsp2taxusppbc7a4pxptetsbn",
"dubbzcHSV73pp7pzxpxxx<ybybbyupxap,,p838vpxxxssssnb",
"h;vbzSSckzznFVzkapapxtsxsppxxxxxpacVFmvapzzppsxMda",
";uutabga5dgvNaa68vba63u55ba3bgssp7ggvgg&gbvz63p45b",
"=uu4psaugaaag8a8uvbgp5553va4dpa5caa3a8vzgvbvp88-5m"
};
