/* XPM */
static char *collect__2__removebg_preview__1_1679190498[] = {
/* columns rows colors chars-per-pixel */
"50 50 223 2 ",
"   c None",
".  c #030101",
"X  c #0A0302",
"o  c #0C0904",
"O  c #0D0D0A",
"+  c #090708",
"@  c #140301",
"#  c #1B0302",
"$  c #120C03",
"%  c #1A0A04",
"&  c #100E0B",
"*  c #1E0D08",
"=  c #14110A",
"-  c #1B150B",
";  c #191816",
":  c #0F100D",
">  c #220101",
",  c #2C0502",
"<  c #240C03",
"1  c #2C0B05",
"2  c #2A0C08",
"3  c #3C0B02",
"4  c #340904",
"5  c #221601",
"6  c #231C05",
"7  c #291506",
"8  c #371706",
"9  c #261E17",
"0  c #311E17",
"q  c #1F2219",
"w  c #352609",
"e  c #22221C",
"r  c #202116",
"t  c #392B1A",
"y  c #2F2A17",
"u  c #2C2B23",
"i  c #292826",
"p  c #34352C",
"a  c #3A3A29",
"s  c #3A3A33",
"d  c #3C3C3C",
"f  c #383831",
"g  c #312C23",
"h  c #400D02",
"j  c #40130A",
"k  c #481608",
"l  c #571D03",
"z  c #442805",
"x  c #5C260B",
"c  c #582507",
"v  c #4C3406",
"b  c #593D04",
"n  c #533705",
"m  c #49331D",
"M  c #5A3714",
"N  c #692A05",
"B  c #6B3509",
"V  c #783908",
"C  c #6C3819",
"Z  c #6D2F0E",
"A  c #413825",
"S  c #413F38",
"D  c #693A26",
"F  c #3F402F",
"G  c #5B4917",
"H  c #6F4D04",
"J  c #754A06",
"K  c #785309",
"L  c #624E19",
"P  c #7D5D15",
"I  c #744D1F",
"U  c #7D6119",
"Y  c #42412B",
"T  c #434334",
"R  c #44443B",
"E  c #494A3C",
"W  c #494738",
"Q  c #544D37",
"!  c #774C2C",
"~  c #635C35",
"^  c #775738",
"/  c #674C25",
"(  c #66623D",
")  c #7C6A2A",
"_  c #464645",
"`  c #4B4C44",
"'  c #4F4F4B",
"]  c #474848",
"[  c #4F5049",
"{  c #535545",
"}  c #52524A",
"|  c #5B5D47",
" . c #5B5B54",
".. c #595958",
"X. c #5F6151",
"o. c #5D604C",
"O. c #63644C",
"+. c #696B57",
"@. c #62625D",
"#. c #6B6E5A",
"$. c #646753",
"%. c #75755C",
"&. c #79795C",
"*. c #77785C",
"=. c #737053",
"-. c #636363",
";. c #6C6C6D",
":. c #676866",
">. c #7B7B63",
",. c #7B7D6C",
"<. c #767664",
"1. c #737372",
"2. c #7D7D7C",
"3. c #797977",
"4. c #70706E",
"5. c #813F05",
"6. c #883D06",
"7. c #844606",
"8. c #9A5406",
"9. c #9E5909",
"0. c #91561A",
"q. c #864C17",
"w. c #956509",
"e. c #A76608",
"r. c #B76E07",
"t. c #B77907",
"y. c #A7681C",
"u. c #B07510",
"i. c #885929",
"p. c #8C623A",
"a. c #986E32",
"s. c #A6742F",
"d. c #C37D08",
"f. c #9B794A",
"g. c #7D816D",
"h. c #7F8170",
"j. c #B68C3F",
"k. c #B4862E",
"l. c #CA8906",
"z. c #D38D06",
"x. c #D38E0A",
"c. c #DC9504",
"v. c #D99508",
"b. c #D89916",
"n. c #C5861D",
"m. c #E39B04",
"M. c #E49E0A",
"N. c #E6A20B",
"B. c #E8A814",
"V. c #EFB31F",
"C. c #C68D27",
"Z. c #C59832",
"A. c #D8A22F",
"S. c #E3AA2D",
"D. c #E4A626",
"F. c #F5BB2A",
"G. c #F6B927",
"H. c #E5B02F",
"J. c #F9C02C",
"K. c #F8C437",
"L. c #A4965A",
"P. c #BA9B5C",
"I. c #B89859",
"U. c #B2A55C",
"Y. c #85866A",
"T. c #9F9A60",
"R. c #8A8B7D",
"E. c #878877",
"W. c #929375",
"Q. c #94967B",
"!. c #A79A61",
"~. c #B0A965",
"^. c #978F4F",
"/. c #D2AC4A",
"(. c #C7A757",
"). c #D4B64D",
"_. c #E0B94D",
"`. c #C7BA73",
"'. c #D1BB6A",
"]. c #F4CC4A",
"[. c #F5CA49",
"{. c #FBD550",
"}. c #CCC47A",
"|. c #DBC56F",
" X c #EDD468",
".X c #F3D464",
"XX c #F9DE69",
"oX c #E7DA7B",
"OX c #F3DF7B",
"+X c #E2C365",
"@X c #F5E27E",
"#X c #F5E175",
"$X c #868684",
"%X c #8D8D8C",
"&X c #8C8C83",
"*X c #8F908A",
"=X c #919483",
"-X c #949788",
";X c #989996",
":X c #989899",
">X c #959595",
",X c #A09F93",
"<X c #A5A69B",
"1X c #A9AB93",
"2X c #AAA9A9",
"3X c #B3B4AB",
"4X c #B9BCAA",
"5X c #B5B6B3",
"6X c #BFC3AE",
"7X c #E9DC86",
"8X c #EEE58C",
"9X c #F4E383",
"0X c #F7E888",
"qX c #FDF18F",
"wX c #FEF292",
"eX c #F5EA91",
"rX c #C0C4AE",
"tX c #C7C9B9",
"yX c #CCCDC5",
"uX c #CECFC9",
"iX c #D2D2CB",
"pX c #D5D6CA",
"aX c #D2D3CA",
/* pixels */
"                                                                                                    ",
"                                                                                                    ",
"                                                                                                    ",
"                                                                                                    ",
"                                                                                                    ",
"                                                                                                    ",
"                          d F d d d d d d d d d d d d d d d d d d d d                               ",
"                        ;...} [ ' ' ' ' [ [ [ [ [ [ [ [ [ [ [ [ [ [ ` ' }                           ",
"                  ;.:.2.$X$X<.#.#.#.#.+.#.#.#.#.#.#.+.#.#.#.#.#.#.#.$.o.{ [ ..-.                    ",
"                2.4.1.%X<X1X,.X.#.+.+.+.#.+.+.+.+.+.+.+.+.+.+.+.+.+.#.#.+.{ T W }                   ",
"              2.$X%X:X2X<X-XX.R E E E E E E E E E ` E E E E E E E E { +.>.O.W T `  .                ",
"            d -.2XiXpX3XE.{ q O O O O O & & O O & O O & & O : : & O e T #.>.&.+.E g ..              ",
"            ] -.2XiXyXQ.{ q o . . . . . . . . . . . . . . . . . . . + ; R =.Y.&.E u X.              ",
"            ;.2.2X3X-X{ q . . . . . . . . . . . . . . . . . . . + . . + q W %.g.O.T ..              ",
"          ..%X3X4X=X} ; o . o o o X o $ o $ o X . . o $ $ = & = - = $ X o q T g.Y.$.` `             ",
"          _ >XyXrXY.f O o 5 v G b b b G b n z 1 @ $ w G L L ~ ~ ( ( Q a * $ u >.W.&.T s 3.          ",
"          F :XuX6Xg.p O $ v w.t.t.t.t.t.r.e.7.k , 7 L k.j./.'.}.`.`.!.p.0 # u f.&X&.F f 1.          ",
"          d :XuX6Xg.p + @ 8 J r.z.v.c.z.d.8.Z k , < n s.). X@X8X7X'.f.D 4 # u <.Q.<.F f 1.          ",
"          _ :XuX6Xg.p O . 1 c e.z.m.N.c.r.6.l 3 > # 8 I U.OXwXwX7XI.i.k 4 # i <.W.&.F s 1.          ",
"          d :XyX6Xg.p + . $ 8 7.l.c.m.c.e.N 3 # @ X % m U.8XwX0X+Xf.x 4 > & g ,.W.&.F f 1.          ",
"          d :XaXrXg.p o . . 5 J l.c.c.c.e.B , @ . . o y !.7X0XXX_.s.x > @ X i ,.Q.>.F f 1.          ",
"          ] :XyX6X<.p + . + 5 H l.c.M.B.u.V 8 % : O = a U.oXXX{.H.y.x > . + i 4.E.%.R F             ",
"          -.%X2X-XX.u + . . - H l.v.B.V.n.0.C m a a F ~ U. X].K.S.y.x > X . e ..#.X.` }             ",
"            4.X.` p : . . o 5 H l.B.V.J.S.Z.j.^.T.T.U.U.).].K.K.S.y.x > X . : i p p [               ",
"            ] i + . . . . . - K b.G.F.F.F.[. X9X8X8XOX X].K.J.J.D.y.l # X . + + + & ..              ",
"            _ i O + + . . + 6 P D.F.K.K.[..XOX8X0X#X X].K.F.F.G.b.9.l # . . + + + O ..              ",
"            ;.:..._ ; + . + 6 U D.F.F.[._.(.P.P.U.I.j.C.D.G.V.V.x.8.l > X + ; _ ' ` @.              ",
"          -.%X5X5X2.d O . . 6 U S.F.[..X(.f.D D D C C q.C.V.B.N.l.8.l > X + i f.,XR.+. .            ",
"          ] :XiXaX=XF O . o 6 U H.{.XX9XP.! 0 4 1 1 4 n u.b.N.M.z.8.l > . + p =X1X=X| R             ",
"          d :XiXyXR.d O . . 6 ) ). X0X8XP./ 4 @ @ X @ 8 w.x.m.m.d.8.l > . + u E.1XY.W s 1.          ",
"          d :XiX6X,.f + . + w ) +X9XqX0XP.! 4 X . . o w w.z.m.m.l.8.c > X + i <.W.*.F f 1.          ",
"          d :XuX6Xg.f + . - Y ^.oXqXwX9X(.i.k # X X - n e.z.m.m.z.e.B 4 # o y <.W.%.F f 1.          ",
"          d ;XaXrXg.f + O t =.~.7XeX9X.X/.s.C 8 # % z K t.z.c.m.z.r.8.l 2 @ i >.W.<.F f             ",
"          d ;XyXrX,.p O - W L.|.|.|.'./.Z.C.0.l > 2 B e.t.d.d.d.d.t.e.V 3 % u >.W.&.F e             ",
"          _ >XyXrXh.f O & t ! p.p.p.i.i.0.q.Z j , < z V 5.5.5.5.5.6.V l 4 2 i f.W.<.R u             ",
"          ' %X3X4X=X} e o % 8 k j j j 3 j h 3 4 # @ < 3 h h 3 h h h h 3 2 y R &.f.X.R               ",
"            -.$X3X3X-X{ 9 o @ @ # # # # # # # @ X X X @ # # # # # # # # 0 Q <.g.O.F                 ",
"            d -.2XiXyX=X} e + . . . . . . . . . . . . . . . . . . . o 9 E #.Y.&.|                   ",
"              -.2XuXpX6XR.{ 9 : & & & & & & O O O O = O O O & O O O e R #.f.4.%.                    ",
"                $X%X;X<X<X=X ._ E E E E E E E ` E E ` ` E E E E E E { +.>.$.`                       ",
"                3.;.1.%X<X<X<.+.+.+.+.+.+.+.+.+.+.#.+.+.+.+.+.+.+.+.#.#.+.{                         ",
"                  ;.-.2.$X&X<.+.#.#.#.=.#.#.#.#.#.#.#.#.#.#.#.#.#.#.+.X.{                           ",
"                        4...} { [ [ [ } ' ' ' [ } } ' ' } [ [ [ } [ {                               ",
"                          s d d d d d d S d d d d d d d d d d d d                                   ",
"                                                                                                    ",
"                                                                                                    ",
"                                                                                                    ",
"                                                                                                    ",
"                                                                                                    ",
"                                                                                                    "
};
