/* XPM */
static char *door_removebg_preview__1_1679190120[] = {
/* columns rows colors chars-per-pixel */
"50 50 136 2 ",
"   c None",
".  c #33271F",
"X  c #2D2723",
"o  c #2E2823",
"O  c #2F2F2D",
"+  c #342B24",
"@  c #3C2E23",
"#  c #342F2A",
"$  c #3B3025",
"%  c #33312E",
"&  c #3B332B",
"*  c #353533",
"=  c #3B3530",
"-  c #363936",
";  c #3A3936",
":  c #3C3D3C",
">  c #402F22",
",  c #413126",
"<  c #4E3426",
"1  c #423429",
"2  c #4A3629",
"3  c #47392D",
"4  c #4B3A2D",
"5  c #513727",
"6  c #523C2B",
"7  c #433B34",
"8  c #4A3E34",
"9  c #503D34",
"0  c #3F403C",
"q  c #57402D",
"w  c #494237",
"e  c #41413E",
"r  c #514033",
"t  c #5C4532",
"y  c #52453A",
"u  c #564A3D",
"i  c #5D4B3D",
"p  c #614633",
"a  c #654B36",
"s  c #6D4937",
"d  c #654D3A",
"f  c #6F4C38",
"g  c #734F39",
"h  c #6B523D",
"j  c #72543D",
"k  c #7B563C",
"l  c #7D5A3E",
"z  c #3F3F40",
"x  c #444443",
"c  c #484747",
"v  c #474946",
"b  c #4B4B46",
"n  c #484748",
"m  c #4C4C4C",
"M  c #4F504C",
"N  c #5D5040",
"B  c #50514F",
"V  c #4F4F50",
"C  c #504F50",
"Z  c #545454",
"A  c #585756",
"S  c #585956",
"D  c #575759",
"F  c #595759",
"G  c #575959",
"H  c #5B5B5B",
"J  c #645342",
"K  c #6B5543",
"L  c #6B5946",
"P  c #655C4F",
"I  c #725641",
"U  c #745B44",
"Y  c #7D5B42",
"T  c #795F4A",
"R  c #605E5F",
"E  c #5E605F",
"W  c #7B614C",
"Q  c #6F6251",
"!  c #60605E",
"~  c #726351",
"^  c #5F5D60",
"/  c #605F60",
"(  c #5E6160",
")  c #646464",
"_  c #656867",
"`  c #676568",
"'  c #686668",
"]  c #676A68",
"[  c #6B6C6C",
"{  c #6F6F71",
"}  c #706F71",
"|  c #737273",
" . c #777877",
".. c #777578",
"X. c #7B7B7C",
"o. c #81583E",
"O. c #825C42",
"+. c #895F43",
"@. c #856245",
"#. c #8C6346",
"$. c #85654B",
"%. c #8A664B",
"&. c #87684F",
"*. c #8A694D",
"=. c #906547",
"-. c #926649",
";. c #946A4C",
":. c #986F4F",
">. c #8C704D",
",. c #95704E",
"<. c #9A724E",
"1. c #876C55",
"2. c #8B6B51",
"3. c #936E52",
"4. c #986F51",
"5. c #82705B",
"6. c #8B735C",
"7. c #967153",
"8. c #9B7555",
"9. c #9E7957",
"0. c #9D7758",
"q. c #9E7A59",
"w. c #A37E57",
"e. c #A17D59",
"r. c #A38159",
"t. c #827F83",
"y. c #858386",
"u. c #878588",
"i. c #888589",
"p. c #8D8B8D",
"a. c #8F8D91",
"s. c #908D91",
"d. c #8F9090",
"f. c #959295",
"g. c #969398",
"h. c #99969A",
/* pixels */
"                                          m [ A x [ ^ Z n 0                                         ",
"                                C x ..X.) Z f...H s.y.| H x [ | x * ; n                             ",
"                                y...| u.} m ) [ C m [ ^ n | X.[ Z z ' ` z                           ",
"                              D X...F F H c : c x ; x 7 e | H B : | h.) V ;                         ",
"                          * F ] [ F n - % # $ 4 3 2 3 3 3 & % % % ` X.} ) m -                       ",
"                        * * V ] F ; + 1 p a T 7.8.#.:.7.3.h a p 3 + n [ F e * *                     ",
"                        ) X.n n v % h $.;.8.0.0.8.=.;.;.8.8.0.=.%.I & V x x X.F                     ",
"                      m u.y.H - = h 3.9.-.7.0.8.8.;.#.@.e.8.8.=.0.0.U $ x i.g.` n                   ",
"                      H | [ V # t *.l ,.;.7.0.8.8.;.@.%.e.0.7.-.8.e.-.g 7 ..' m m                   ",
"                      Z ( D 0 1 l @.*.@.o.$.7.9.8.;.@.;.e.8.8.-.8.8.;.-.8 * x Z x *                 ",
"                    ) [ n : # h <.@.@.@.$.*.@.7.9.=.o.r.8.0.7.-.7.e.;.;.Y + ; c ) G                 ",
"                    ' y.^ x 3 3.8.;.8.@.@.l $.@.*.=.l e.8.8.8.-.0.0.;.:.4.9 x p.i.H                 ",
"                    b F ^ x 4 0.<.-.8.=.=.*.#.@.@.o.O.8.8.0.7.-.8.0.;.:.8.t e u.[ B                 ",
"                  F | [ D & U 0.7.-.7.;.=.7.7.@.@.*.@.@.<.0.8.-.8.8.;.;.9.$.1 G [ D :               ",
"                  n } _ x $ &.9.<.-.0.8.;.7.0.7.*.o.>.7.%.8.8.=.7.e.;.3.8.7., v ] H 0               ",
"                  x ) G : $ &.9.7.-.0.0.;.7.8.9.9.;.@.$.%.+.=.=.0.0.;.;.3.7.& v D m :               ",
"                  : Z m x $ 2.0.4.-.0.0.-.7.w.0.0.=.4.#.O.*.@.@.*.3.*.2.&.~ $ e G m 0               ",
"                  Z p.X.^ $ $.0.4.;.0.0.;.7.8.8.0.-.:.;.;.@.@.%.$.i b b b e o ) f.{ c               ",
"                  H p.] x $ $.0.<.-.0.8.-.7.0.8.8.-.7.:.8.8.*.o.W 3 - 7 e e % A | m *               ",
"                  m | ) x $ 2.0.7.-.8.0.;.w.0.-.7.;.4.0.0.8.8.=.3.K y 8 J w o b Z : :               ",
"                  x H D : $ 2.0.7.-.0.8.;.w.8.-.7.;.<.0.0.8.8.=.8.8.#.j @.W $ e m : -               ",
"                  x D b ; @ %.0.7.-.0.8.;.r.;.:.0.-.4.0.8.8.7.;.8.0.:.*.7.O.@ e D x -               ",
"                  Z p.X.Z @ &.0.4.-.w.8.;.w.;.:.0.-.7.0.8.0.8.=.8.0.;.3.8.3., H a.| n               ",
"                  Z X.[ n @ &.0.7.;.8.8.;.w.;.:.0.-.<.8.0.8.8.-.8.8.:.;.9.3., S  .) x               ",
"                  D X.[ b $ $.0.7.;.0.0.-.%.;.:.0.-.7.0.0.0.<.-.0.0.;.;.0.3., S | ) x               ",
"                  x ) F x $ 2.8.<.-.7.9.#.k ;.,.0.-.4.0.0.8.7.-.7.0.;.:.0.3., c ) D z               ",
"                  ; x x * $ &.9.7.k *.9.#.k q.9.0.-.<.0.0.8.8.-.#.3.;.:.0.3., ; x x ;               ",
"                  c } ) x $ $.5.L 9 J W #.Y q.0.0.=.7.0.0.8.8.-.Y 7.;.:.0.3., m | F e               ",
"                  R h.| m @ 2.6.P = N 2.#.k q.8.8.;.7.0.8.0.8.=.Y 8.,.<.0.3., _ d.[ n               ",
"                  F t.) V # $.5.3.j h W #.#.8.9.8.;.w.0.0.8.8.+.#.9.;.,.0.7., H  .) :               ",
"                  n { ' x # L T 7.k >.J #.7.8.0.8.;.w.0.8.w.7.o.*.r.;.:.0.3., b [ E z               ",
"                  x R H m @ U J ;.k U L -.<.0.8.0.;.w.8.8.8.8.o.*.9.;.3.8.7., v E V :               ",
"                  ; m D ; @ $.$.d 9 J 7.;.4.8.0.8.;.w.0.8.0.7.+.:.8.;.:.0.3., ; n x -               ",
"                  V i.| x @ 2.8.%.j *.0.-.7.0.0.0.-.7.8.0.0.8.-.8.0.;.:.0.3., Z p.[ z               ",
"                  H s.} Z + 2.8.:.-.8.8.;.7.e.8.0.=.#.0.0.8.7.-.7.0.;.:.9.7., ) u.[ n               ",
"                  D t.) x @ 2.;.;.:.w.0.-.7.8.0.8.#.l e.0.0.8.-.0.0.;.;.8.3., H  .( x               ",
"                  Z X.) x + *.;.;.<.e.0.;.7.8.0.0.+.O.e.8.0.8.=.0.0.;.:.0.3.1 G  .( 0               ",
"                  0 D D : $ *.7.:.<.e.0.;.7.0.8.0.=.O.e.0.8.7.-.8.0.;.,.0.7.1 7 H V :               ",
"                  : Z b x $ &.0.4.<.w.8.-.7.9.8.0.=.O.e.8.0.7.-.8.0.2.1.6.Q + e E n :               ",
"                  V | { Z $ &.0.<.;.0.0.;.7.0.8.8.-.+.0.0.7.:.-.7.L m B M e o _ d.[ n               ",
"                  V | [ M $ &.0.4.-.w.0.-.4.0.0.8.;.7.0.8.;.;.-.8.w * : e : # Z } [ n               ",
"                  n { _ x @ &.0.4.-.8.0.;.4.8.0.0.;.7.0.9.;.-.-.8.J y y u 7 X m D ] z               ",
"                  n ) ) x $ $.9.4.-.8.0.-.8.9.8.0.-.7.0.8.;.-.-.8.8.;.3.8.W # ; H D :               ",
"                  0 m n ; $ %.0.4.-.0.8.=.o.q.0.0.-.7.0.8.;.;.-.8.0.;.:.8.7.1 # Z x :               ",
"                  : F D x $ 2.8.:.-.0.8.#.k e.0.0.-.8.8.0.;.-.-.8.0.;.:.0.7., x ! D x               ",
"                  m ) ` n $ 2.8.8.-.0.w.#.k q.0.8.-.4.0.0.;.-.-.8.0.;.:.0.3., M | ) :               ",
"                  x D ` x $ &.8.4.-.0.0.-.@.4.0.7.#.4.0.8.4.;.;.0.0.;.:.0.@.$ b { H -               ",
"                  x [ _ z @ 2.q.4.#.0.0.@.O.0.4.Y s 3.w.0.w.<.@.0.0.%.@.Y s + M [ Z *               ",
"                  n ) Z : + a I a 6 j I 6 a I t 5 > s j j j h 5 j j q 5 5 5 . v H e %               ",
"                  ; 0 : - $ > @ > , > > > > > > > @ > @ > , > $ , . > > , > @ ; ; % *               "
};
