/* XPM */
static char *_67d0cd46b554393fd7a0ac1130615f8nJfsCeJtY01jjTQw[] = {
/* columns rows colors chars-per-pixel */
"50 50 233 2 ",
"   c None",
".  c #050303",
"X  c #0B0A06",
"o  c #0C0C0B",
"O  c #090302",
"+  c #110E0C",
"@  c #160A07",
"#  c #0E110C",
"$  c #1B1E07",
"%  c #14120B",
"&  c #1A140B",
"*  c #1D1C0C",
"=  c #141707",
"-  c #100E11",
";  c #141313",
":  c #191512",
">  c #1D1A13",
",  c #1C1C19",
"<  c #161814",
"1  c #0F1113",
"2  c #270909",
"3  c #390807",
"4  c #241C0B",
"5  c #29140C",
"6  c #231D14",
"7  c #291D17",
"8  c #3C1612",
"9  c #1D2209",
"0  c #1E2119",
"q  c #2B210F",
"w  c #232709",
"e  c #31280C",
"r  c #2E3509",
"t  c #363C09",
"y  c #242315",
"u  c #2B2415",
"i  c #262B11",
"p  c #25221B",
"a  c #2A251C",
"s  c #2D2A1D",
"d  c #2B2B15",
"f  c #342614",
"g  c #342A14",
"h  c #342D1C",
"j  c #3B2D1A",
"k  c #3B2B17",
"l  c #2F3116",
"z  c #3C311B",
"x  c #3B3C1A",
"c  c #383418",
"v  c #2A2423",
"b  c #2D2B25",
"n  c #282826",
"m  c #342D29",
"M  c #35322C",
"N  c #3B3527",
"B  c #3E3932",
"V  c #373533",
"C  c #450808",
"Z  c #57080A",
"A  c #4E110F",
"S  c #4B1512",
"D  c #531212",
"F  c #5C1715",
"G  c #51120B",
"H  c #660B0B",
"J  c #780707",
"K  c #661212",
"L  c #691815",
"P  c #791919",
"I  c #432719",
"U  c #44351A",
"Y  c #443B1C",
"T  c #4C3C1B",
"R  c #463917",
"E  c #533717",
"W  c #513113",
"Q  c #6E251E",
"!  c #71211D",
"~  c #463B26",
"^  c #423A32",
"/  c #5C3728",
"(  c #683730",
")  c #394405",
"_  c #3B440A",
"`  c #3F4A0A",
"'  c #3E4515",
"]  c #3F421C",
"[  c #424B0B",
"{  c #40410D",
"}  c #4D421A",
"|  c #474719",
" . c #52491B",
".. c #4A5215",
"X. c #4D541A",
"o. c #54581B",
"O. c #684F12",
"+. c #7D6D0E",
"@. c #4A432A",
"#. c #5B4B2D",
"$. c #554927",
"%. c #585728",
"&. c #4B4438",
"*. c #584A38",
"=. c #5E543B",
"-. c #644D2B",
";. c #715B22",
":. c #644D39",
">. c #6E4B34",
",. c #685737",
"<. c #76533C",
"1. c #79593A",
"2. c #744A31",
"3. c #5B6124",
"4. c #636428",
"5. c #696734",
"6. c #776B37",
"7. c #77753B",
"8. c #584D42",
"9. c #5C5446",
"0. c #585556",
"q. c #494746",
"w. c #665A48",
"e. c #755945",
"r. c #665E51",
"t. c #795A54",
"y. c #6A6146",
"u. c #756948",
"i. c #7C7545",
"p. c #756654",
"a. c #756C58",
"s. c #796D64",
"d. c #766E6A",
"f. c #8B0A0A",
"g. c #940406",
"h. c #8A1817",
"j. c #961719",
"k. c #A80303",
"l. c #B80808",
"z. c #B11719",
"x. c #A91016",
"c. c #B71D20",
"v. c #8A322D",
"b. c #B62324",
"n. c #CB1212",
"m. c #C32525",
"M. c #DA2425",
"N. c #EB2B2A",
"B. c #E72627",
"V. c #F02929",
"C. c #876C13",
"Z. c #8B7610",
"A. c #82503B",
"S. c #856B31",
"D. c #886C48",
"F. c #897746",
"G. c #967948",
"H. c #856552",
"J. c #857657",
"K. c #997755",
"L. c #976B4C",
"P. c #877667",
"I. c #A97B57",
"U. c #818209",
"Y. c #908F15",
"T. c #B9940D",
"R. c #A69013",
"E. c #B7B611",
"W. c #B1A910",
"Q. c #D7A50E",
"!. c #D5B80A",
"~. c #E6BC0E",
"^. c #DEC70D",
"/. c #E9CD0E",
"(. c #F2E90A",
"). c #9D814A",
"_. c #8E8154",
"`. c #998855",
"'. c #9E935A",
"]. c #8B844C",
"[. c #A3844B",
"{. c #A88958",
"}. c #A6955E",
"|. c #B4915A",
" X c #9D8F63",
".X c #998468",
"XX c #978977",
"oX c #9D9260",
"OX c #B88961",
"+X c #AB9966",
"@X c #B19E6C",
"#X c #B59361",
"$X c #A99279",
"%X c #B69374",
"&X c #B2A26E",
"*X c #BAA572",
"=X c #B5A472",
"-X c #C79969",
";X c #CB9D75",
":X c #C6A26A",
">X c #D6A56C",
",X c #DAA477",
"<X c #E0A673",
"1X c #E3AB78",
"2X c #EBB278",
"3X c #F6B77D",
"4X c #8B8786",
"5X c #949493",
"6X c #949286",
"7X c #B79C82",
"8X c #AF9985",
"9X c #B1A897",
"0X c #B2A892",
"qX c #B1B1B2",
"wX c #DAB998",
"eX c #CFAE8D",
"rX c #E7B688",
"tX c #FBBB83",
"yX c #F3BB85",
"uX c #EEBF93",
"iX c #FBC18D",
"pX c #F9C18A",
"aX c #FBC592",
"sX c #F8C798",
"dX c #E8C59E",
"fX c #D8C8B0",
"gX c #E8C7A5",
"hX c #F6CEA5",
"jX c #FCD4AE",
"kX c #F9D2A9",
"lX c #FBD9B7",
"zX c #FCE2BC",
"xX c #FCE3C4",
/* pixels */
"                                p # 0                                                               ",
"                              s Y.W.Y.x 1 1 < 1 ; <                                                 ",
"                              > Y.(.^.Y.U.U.U.+.C.+.O.f                                             ",
"                              * R.!.Q.E.E.E.E.!.^./.T.O.R }                                         ",
"                              f Y.C.e $ 9 9 * { W././.~.Q.C.5                                       ",
"                            U R.O.4 :           ] ' +.^./.Z.>                                       ",
"                               .4 %               r.u.Z.T.Q.C.z                                     ",
"                              0 X M               fX0XJ.;.T.T.g                                     ",
"                                ^ s.P.M p.w.r.XX9X9XqX0XJ.;.C.f                                     ",
"                              M XXwX$X*.8XfX8X8.n n r.9X9Xa.4 +         v : 0 n                     ",
"                            n 4XwXuX2X;XdXjXdX+X@.:.p.*.V p O O + o % s p.a.XX5Xn                   ",
"                              q.r.%XgXaXhXkXsX1XK.{.K.I 3 3 . o ~ #.#.,.`.+X0X$Xp                   ",
"                              v : s.gXaXsXaXpX>XG.D.A.L f.f.F F >.D.).[.{.|.+XJ.:                   ",
"                                - t.rXpX2XyX2X[.~ 5 H z.M.V.N.m.Q >.S.G.).)._.u.v                   ",
"                                o d.fXfX-X>X>XG.I Z x.M.N.V.N.N.b.Q I E -.o.~ b                     ",
"                                1 n q.9.#X>X[.~ 2 L j.K D D D L m.m.h.k 6.F.@.;                     ",
"                                o m e.u.OXG.#.7 A P v.t.t.<.<.2.v.z.z.! >.F.i.~                     ",
"                                1 *.OX-XL.~ & 2 P P w.eXfXrXrX;XA.P x.b.S u.{.u.,                   ",
"                                ; $.G.G.^ 6 - - H H A.wXxXxXkXgX;X2.K m.D <.+XJ.a                   ",
"                                  m k u ; 0.0.n 2 ( -XrXjXlXlXjXrXe.A M.b./ ,.`.p.b                 ",
"                                    5 C 2 4X4XV + <.<XtXaXkXlXjXeX2.D V.B.L @.}..Xa                 ",
"                                    C f.8 5XqXd.v <.<X3XtXaXsXuX,X>.C M.M.F z F.u.y                 ",
"                                  p S h.D 4XqX5X&.e.<X3XtXtXiXyX>X2.3 n.B.L k -.#.6                 ",
"                                  z W Q H ( d.5X0.e.<X3XtXtX3X3X-X>.C l.N.b.L N 5.7                 ",
"                          ; o < + R ;.E Z 2 7 0.p.I.<X3XtXtXtX<XL.Q J l.V.V.h.b J.s                 ",
"                        V M b 6 X m ;.O.5 O : *.OX2XyXtXyXaXtX-X/ H k.l.B.m.K 6 w.M                 ",
"                      M 8.w.w.g + @ e W 5 ; ^ K.,XtXsXsXhXaXrXI.Q J l.l.z.L 2 ; m                   ",
"                    m 8.=.=.@.u & : 7 f 7 ^ r.K.%XwXsXsXtXuX-X( J g.k.g.Z @ #                       ",
"                  V ^ w.#.R q 7 h ^ w.>.:.w.r.s.P.7XsXtXtX;XH.K g.f.J Z @ . <                       ",
"                M B y.#.T g & R 6.@XwXuXyXP.w.8.^ 8.-X1X;X<.3 J J F j g = = 0                       ",
"              b &.w.$.$.T j v ~ S.[.:XhXlXgX7X8.& & :.D.,.a 7 8 I e. XF.| t w <                     ",
"            b 8.,.#.E R q &.J.,.S.G.@XgXlXlXgXXXM O : j ~ $.J.J.J.'.&X}.o.) w ;                     ",
"          m &.9.%.T Y f + m p.6.1.S.|.gXkXlXwXP.b = = y %.`.=X*X&X`.].'.X.) w %                     ",
"        M B r.#.T T j > + o a -.~ } 6..X$XXXJ.N 9 9 w ] i.*X*X@X].4.o.7.X.r i                       ",
"        v y.*.T T j 6         : # > y v 6 > l ` ` 9 y %.].*X*X}.4.` ` [ t = ,                       ",
"        o y U R g 7           - s 5._._.%.] ' ` ) 9 N _.&X*X*X'.o.) ) t = X <                       ",
"        , X * 6 p             : =.'.=X+X5.X.[ ) w = @. X*X=X}.5...r 9 = X <                         ",
"          < - 1               : u.&X=X+X5.X.[ _ 9 = @. X*X*X}.6.4.x 9 = X                           ",
"                              : w.oX=X&X7.3.X.[ ) w N ].@X=X@X}.`.7...) 9                           ",
"                              ; x 7.'.+X}.7.3.X._ 9 9 $.F.+X_.3.o.7.7.` r >                         ",
"                                i p @.4.5.%.X._ 9 X X % d @.5.i.X...X.) $ X :                       ",
"                                    , i i i i $ X . o ; % > d @.l 9 9 9 q q p                       ",
"                                      o # & & & = o o       ; - X o & 4 U T g 6                     ",
"                                      * j T R R U 6 :           , u R E T T R g %                   ",
"                                    s ' } } T R 4 @ ;             s i $.} R g = o                   ",
"                                  8.y.%... ...} j g u p         v l %.].%. .R e h 6                 ",
"                                p $.6.3.o.o. .T T T g ,         i ' 3.i.%.}  .T R 6                 ",
"                              : y x ' ] | R c U j z u >       > d ] ' ' U U j j j 7                 ",
"                              ; X X o o X X X X X o o ;       - o X o X X X X X o :                 ",
"                                                                                                    "
};
