/* XPM */
static char *metal_png_removebg_preview__1_1679190405[] = {
/* columns rows colors chars-per-pixel */
"50 50 239 2 ",
"   c None",
".  c #030202",
"X  c #0A0606",
"o  c #070904",
"O  c #0B0A06",
"+  c #0C0B0B",
"@  c #070708",
"#  c #130D06",
"$  c #130D0C",
"%  c #1C0B09",
"&  c #0E1004",
"*  c #121506",
"=  c #13120B",
"-  c #1A130C",
";  c #1D1A0D",
":  c #181A06",
">  c #0E0D10",
",  c #110F11",
"<  c #141314",
"1  c #1A1611",
"2  c #1B1914",
"3  c #1B1B1A",
"4  c #151619",
"5  c #0F1112",
"6  c #280606",
"7  c #360C0A",
"8  c #3C0C0D",
"9  c #350404",
"0  c #241D0D",
"q  c #28190D",
"w  c #231C14",
"e  c #241E1A",
"r  c #2E1310",
"t  c #3A1812",
"y  c #3B0C10",
"u  c #1C2207",
"i  c #1F2113",
"p  c #272B0B",
"a  c #352A0D",
"s  c #2E3509",
"d  c #343C0B",
"f  c #333907",
"g  c #252214",
"h  c #2C2515",
"j  c #24221C",
"k  c #2C251C",
"l  c #2E291B",
"z  c #282C15",
"x  c #332512",
"c  c #332915",
"v  c #3A2D19",
"b  c #3C3317",
"n  c #3D3119",
"m  c #363816",
"M  c #242422",
"N  c #2C2A24",
"B  c #2C2925",
"V  c #312C25",
"C  c #372B21",
"Z  c #3C3429",
"A  c #3A3935",
"S  c #490607",
"D  c #4C1817",
"F  c #561813",
"G  c #530E0F",
"H  c #770707",
"J  c #631415",
"K  c #751717",
"L  c #680403",
"P  c #412F18",
"I  c #4E3E16",
"U  c #43351A",
"Y  c #463C1A",
"T  c #4D3C1B",
"R  c #463619",
"E  c #523E1E",
"W  c #4F3211",
"Q  c #63251D",
"!  c #463727",
"~  c #553B2A",
"^  c #443C35",
"/  c #703829",
"(  c #3B450A",
")  c #3C4705",
"_  c #3D4516",
"`  c #424B0B",
"'  c #414D04",
"]  c #42451B",
"[  c #4E441B",
"{  c #4D4D1C",
"}  c #494815",
"|  c #58471B",
" . c #4A5315",
".. c #4A5517",
"X. c #545A1C",
"o. c #55581B",
"O. c #51570F",
"+. c #6F4F0E",
"@. c #7E630E",
"#. c #494728",
"$. c #594A2A",
"%. c #5C5C24",
"&. c #5B502F",
"*. c #4A4339",
"=. c #574C35",
"-. c #5E5438",
";. c #66522C",
":. c #654F3A",
">. c #665636",
",. c #725B37",
"<. c #715C2F",
"1. c #5B6425",
"2. c #65652B",
"3. c #6C6739",
"4. c #766838",
"5. c #78763A",
"6. c #6F7035",
"7. c #484643",
"8. c #554C41",
"9. c #5F574A",
"0. c #58585B",
"q. c #635847",
"w. c #665E54",
"e. c #6C6343",
"r. c #746749",
"t. c #7C7645",
"y. c #6D6353",
"u. c #746A56",
"i. c #7A7155",
"p. c #706E6B",
"a. c #85080A",
"s. c #930509",
"d. c #961A1C",
"f. c #8D1417",
"g. c #A80505",
"h. c #B70404",
"j. c #B21718",
"k. c #94211F",
"l. c #8A1E20",
"z. c #9E1D20",
"x. c #BD1F20",
"c. c #992025",
"v. c #B92323",
"b. c #CB181D",
"n. c #E11A19",
"m. c #D61B22",
"M. c #CE2727",
"N. c #E92B2B",
"B. c #E82827",
"V. c #FB2C2B",
"C. c #F4272B",
"Z. c #F42B30",
"A. c #82770A",
"S. c #81653A",
"D. c #84753E",
"F. c #96783A",
"G. c #815B40",
"H. c #876948",
"J. c #897644",
"K. c #947947",
"L. c #877656",
"P. c #957654",
"I. c #8F6E51",
"U. c #847767",
"Y. c #8D7468",
"T. c #82820A",
"R. c #958C18",
"E. c #AF8C11",
"W. c #B8B713",
"Q. c #B5B90D",
"!. c #B69020",
"~. c #D5B70E",
"^. c #F0B70D",
"/. c #D2CB11",
"(. c #FED609",
"). c #ECD110",
"_. c #FFF407",
"`. c #8B854B",
"'. c #9A824D",
"]. c #8C8158",
"[. c #948756",
"{. c #A48648",
"}. c #A48B56",
"|. c #AC9259",
" X c #B39558",
".X c #B68E58",
"XX c #928663",
"oX c #95836C",
"OX c #8D8276",
"+X c #958C7D",
"@X c #A78862",
"#X c #B78A64",
"$X c #AB9B65",
"%X c #A89865",
"&X c #AE9774",
"*X c #B3A16C",
"=X c #B8A56F",
"-X c #BAA573",
";X c #BAA877",
":X c #C2975D",
">X c #CA9A67",
",X c #D09E6D",
"<X c #C9A266",
"1X c #CBA777",
"2X c #D4A578",
"3X c #DFB27E",
"4X c #E8AC77",
"5X c #E7B278",
"6X c #F4B47B",
"7X c #FBBA7E",
"8X c #F0B076",
"9X c #898788",
"0X c #988C8C",
"qX c #B09E86",
"wX c #ADA493",
"eX c #B2A58D",
"rX c #B3B4B6",
"tX c #B2AFAB",
"yX c #D3B89A",
"uX c #C7B391",
"iX c #EAB586",
"pX c #FDBC82",
"aX c #F5BA84",
"sX c #EFBB92",
"dX c #FCC28C",
"fX c #F7C28F",
"gX c #FCCA9B",
"hX c #F7C597",
"jX c #D2C9B3",
"kX c #E9C8A8",
"lX c #FBD3A9",
"zX c #FDDAB5",
"xX c #FEDCBA",
"cX c #FDD7B3",
"vX c #F0CFAE",
"bX c #FEE4BF",
"nX c #C3C5C5",
"mX c #E8DFD4",
"MX c #F3E8D2",
/* pixels */
"                                                                                                    ",
"                                                              N : i                                 ",
"                                                4 , , < 5 5 < R.Q.R.l                               ",
"                                            4 Y @.@.A.A.T.T.T.~._./.;                               ",
"                                          [ W @.).(./.W.W.W.W.E.~.~.:                               ",
"                                        1 E.^.).).).O.= 5 * : * +.E.a                               ",
"                                        - E.(.W.s s           3 # I !.Y                             ",
"                                      n R.^.E.<.U.              4 # [                               ",
"                                      a ~.E.4.U.mXmX            7.O 3                               ",
"                                      p F.$.OXjXwXwXwXu.8.oXe U.Y.^                                 ",
"                      M 2 < M         O 6 +XjX+Xw 5 1 U.vXkX! Y.vXuXV                               ",
"                    N tXwXL.i.w + $ + . . h N :.@Xw H.sXxXcX2XiXsXhXtXM                             ",
"                    3 wX;X%X}.;.>.;.! . X S 9 ! 5XS.,XdXlXcXdXcXeX:.7.                              ",
"                    2 ].|..X}.{.{.H./ J J j.a.Q I.4. X8XaXgXdXcX+XX 3                               ",
"                    M i.[.K.{.K.D.! K Z.C.V.n.s.6 # 2.<XpX5XaXgXY.#                                 ",
"                      3 n $.| E r l.N.N.N.N.N.m.s.6 ;.<X5X XuXmX9X>                                 ",
"                      < &.'.4.r k.B.v.S S 8 y K b.% 1 ,.>X2X=.A M >                                 ",
"                    V -.'.I.$.l.b.d./ H.H.H.OXi.K l.6 2 ,..XP.H.~ >                                 ",
"                    1 P. X>.8 M.s.Q I.gXgXlXbXwX6 v.D . - ,.<X5XH.@                                 ",
"                    C XX[.:.G M.8 I.gXcXxXMXzX#Xt a.9 > 4 $ 4.K.&.4                                 ",
"                  N XX|.#.F N.N.7 I.gXzXzXzXhX6X#Xr . 0.9X+ $ % k                                   ",
"                  k &X|.n J V.N.8 H.sXzXzXgXdX7X,X3 . p.rX- L 9 4                                   ",
"                  w r.4.z J C.b.7 G.iXfXhXdX7X6X>Xw 7.rXnX; j.G <                                   ",
"                  ; &.U D f.C.g.6 H.8X8XpXpX6X8X>Xe 9XnX0XG c.F l                                   ",
"                  l XXw d.V.B.h.9 G.4XaXpXpXpXaX,XC 9X0.y a.7 | I $   4                             ",
"                  N XXe k.V.C.h.g.G :.8XpXpX6X8X4X>X8.> X 6 I F.>.. O @ O 3                         ",
"                  ^ Z $ 8 z.B.h.h.S ~ 6XpXgXlXsX8XaX#X^ . # +.| j O l 8.w.7.M                       ",
"                    3 3 + 8 d.h.h.H Q P.sXgXgXgXsXsXiXH.V # a 6 . o c >.u.-.^                       ",
"                        < . 6 a.s.g.a.D ;XaXpXpXkX&XY.U.q.V c Z B q # x U &.u.V                     ",
"                        4 . . - 6 L g.a.r #XaXaX2XB w.8.~ iXiXkXuXD.T $ x [ $.u.V                   ",
"                      4 p f } ].[.~ 6 6 X e P.#Xt @ , y.yXlXcXuX|.F.T # h T ~ $.r.*.3               ",
"                      = p ) o.*X;X].e.e.q.b ! ! . @ w.yXxXzXzX<XK.F.$.U.=.x T T ;.q.7.M             ",
"                      + p ) o.*X[.%X;X;X=XD.m o * o y.yXxXxXzX1XF.4.<.XX^ # c Y T >.q.A             ",
"                      2 p ( O.[.O.4.$X-X-X=X>.: s * O y.yXyXyX}.;.~ H.c + + - b T Y =.u.N           ",
"                        < u (  .' ` 6.=X-X-Xt.z & s  ._ 2 2 i 2 = + =         2 n T T $.u.N         ",
"                        < o : ( ' ' 2.=X=X;X$X3.& ( ) ( _ } i.L.3.m +           e x I Y l + 3       ",
"                          4 o u u s  .5.*X=X-XL.o u f )  .1.%X=X%X3.1             j 0 0 O 4         ",
"                            o * : ] 2.4.*X-X;XL.o * f ( ` %.%X;X;XXX<               > > <           ",
"                            : (  .5.%X%X=X=X*Xr.& d (  .X.1.$X;X=XL.<                               ",
"                        3 i d ' `.6. .2.$X=XD.m o ( ....2.%X*X;X[.] =                               ",
"                        < O : ) 1. .X.`.2.#.g O . * m ..1.6.6.#.l g                                 ",
"                        g 0 0 p u u m =.p 2 > < . . : p z z z j +                                   ",
"                      2 c E U - = O @ > <       o = # # * = X                                       ",
"                    = b T T T I Y w 3           + v R I E R -                                       ",
"                    O O c I [ { i N             @ # v T I I { z                                     ",
"                  e c x Y { ;.`.#.z           e c c R [ { { ..e.q.3                                 ",
"                  w T T [ { %.`.2.d h         ; T I I [ %.X.X.5.>.g                                 ",
"                  g v n U P b _ _ m g 4       1 n n P n m ] ] ] _ h =                               ",
"                  2 X O @ O O O O O @ 4       + O @ O O O @ + + @ O 5                               ",
"                                                                                                    "
};
