/* XPM */
static char *da5b16f7cde9445ac014d68976052b2a2xmIjlHmSQIRtOaP[] = {
/* columns rows colors chars-per-pixel */
"50 50 172 2 ",
"   c None",
".  c #171600",
"X  c #1C1700",
"o  c #1D1B01",
"O  c #231E02",
"+  c #2C1A01",
"@  c #311E02",
"#  c #3A1E02",
"$  c #232202",
"%  c #292504",
"&  c #2C2B01",
"*  c #25240B",
"=  c #2C2509",
"-  c #2B2C0B",
";  c #302F02",
":  c #322B0C",
">  c #3C2D0C",
",  c #312307",
"<  c #2F300C",
"1  c #333303",
"2  c #383702",
"3  c #3D3D03",
"4  c #34350B",
"5  c #37390F",
"6  c #3F3E0F",
"7  c #2C2C18",
"8  c #353413",
"9  c #3B3C14",
"0  c #3F3E1C",
"q  c #35351D",
"w  c #3F3A26",
"e  c #442304",
"r  c #4D330D",
"t  c #40340C",
"y  c #463B16",
"u  c #593610",
"i  c #563911",
"p  c #473822",
"a  c #464604",
"s  c #494904",
"d  c #42430C",
"f  c #4C4D0B",
"g  c #4F510A",
"h  c #51520C",
"j  c #434415",
"k  c #43421C",
"l  c #494C1D",
"z  c #4A4A18",
"x  c #5A451A",
"c  c #4E5012",
"v  c #4D511C",
"b  c #535717",
"n  c #575A13",
"m  c #5B5F16",
"M  c #595E1A",
"N  c #555A1A",
"B  c #6B4C1B",
"V  c #664618",
"C  c #714C1B",
"Z  c #78521D",
"A  c #5E6319",
"S  c #62671D",
"D  c #64691F",
"F  c #414124",
"G  c #4A4B22",
"H  c #46452D",
"J  c #544A22",
"K  c #4F5321",
"L  c #515423",
"P  c #5A5D21",
"I  c #5B5C2D",
"U  c #595624",
"Y  c #444332",
"T  c #4C4C32",
"R  c #4D4C3B",
"E  c #555535",
"W  c #55543B",
"Q  c #634F24",
"!  c #6C5324",
"~  c #6E5729",
"^  c #765722",
"/  c #7B5E2B",
"(  c #7F5824",
")  c #6D563C",
"_  c #5D6422",
"`  c #5D612B",
"'  c #676B25",
"]  c #6D6C2A",
"[  c #7D622F",
"{  c #6B7126",
"}  c #747A2D",
"|  c #6C6C34",
" . c #766C35",
".. c #6B7034",
"X. c #767D32",
"o. c #707631",
"O. c #5B5B4A",
"+. c #5A5942",
"@. c #616343",
"#. c #786A44",
"$. c #6E6E5B",
"%. c #696857",
"&. c #717157",
"*. c #757465",
"=. c #7B7868",
"-. c #7F7E72",
";. c #875F27",
":. c #835B29",
">. c #8D642A",
",. c #82602A",
"<. c #8C6C36",
"1. c #866A35",
"2. c #936F34",
"3. c #85753A",
"4. c #9D7434",
"5. c #9D783D",
"6. c #98763C",
"7. c #A47938",
"8. c #817740",
"9. c #957C42",
"0. c #917D64",
"q. c #798132",
"w. c #7F863A",
"e. c #808737",
"r. c #848C3C",
"t. c #88903F",
"y. c #AF823F",
"u. c #868A45",
"i. c #888C42",
"p. c #988549",
"a. c #8C9444",
"s. c #959D4A",
"d. c #929A47",
"f. c #83835E",
"g. c #AF8747",
"h. c #A68043",
"j. c #B98B46",
"k. c #B88D49",
"l. c #9AA24E",
"z. c #9DA551",
"x. c #A4AC55",
"c. c #A7AF59",
"v. c #A0A45A",
"b. c #B6A05B",
"n. c #AAB25B",
"m. c #919168",
"M. c #949562",
"N. c #888778",
"B. c #868776",
"V. c #B4BC63",
"C. c #C2934C",
"Z. c #C1994F",
"A. c #CC9E54",
"S. c #C29550",
"D. c #C9A358",
"F. c #D6A459",
"G. c #E0B566",
"H. c #BEC669",
"J. c #C2CA6D",
"K. c #CBD272",
"L. c #D0D878",
"P. c #E9C571",
"I. c #8B8B80",
"U. c #919086",
"Y. c #A1A198",
"T. c #B2B295",
"R. c #C2AF94",
"E. c #DDE582",
"W. c #EEF68E",
"Q. c #C2C2BC",
"!. c #F4F9B3",
"~. c #CBCBC6",
/* pixels */
"                                                                                                    ",
"                                                                                                    ",
"                                                                                                    ",
"                                                                                                    ",
"                                                                                                    ",
"                                                                                                    ",
"                                                                                                    ",
"                                                                                                    ",
"                                                                                                    ",
"                                                                                                    ",
"                                              T.m.m.T.                                              ",
"                                            | i.K.n.` Y                                             ",
"                                            i.E.W.W.l.A W       ] L                                 ",
"                                            !.W.W.W.n.w.3       U |                                 ",
"                                          #.3.3.n.J.z.q.3 R =.m.' &.                                ",
"                        Y.w 7             ) V  .r ] s.A a % . c ' w.$.                              ",
"                        I.$.Y w             P.:.7.B B e.h s o 2 g b T                               ",
"                          $.F y -         0.j.A.P.Z.C Q X.g $ 1 a 3 B.                              ",
"                          -.. * 9 * F       ( A.G.j.r & l & . . ; f f.*.                            ",
"                        Y.*.T 8 #.* +.k w R R.C C.V @ 1 - 4 b o.& g _ X.&.                          ",
"                          0 9 k.1.b.= y k F e u y.r < A = v q.A 3 o & g H                           ",
"                          H / <.6.6.p.J U 8 i >.i o o.j 9 v l.q.a ; f b B.                          ",
"                              = Q 1.h.1.9. .7 , =.v L j ..K t.r.A & % O                             ",
"                              p.. ^ ~ Z.~ A.O # p _ o o 8 $ - d D & l =.                            ",
"                              5.[ x ^ r C.y ~ D.;.t 0 I l q.s.' S & I                               ",
"                              2.g.7.= x r O O :.F.j.> z.n.c.d.} a &                                 ",
"                                4.4.% j . 8 X 9.Q g.B u.t.r.n g & 1 j                               ",
"                                % : _ ' ' 8 . = + = = U h g $ $ 3 & o U.                            ",
"                                    Y Y Y Q.p # + ! Z , . . n q.q.A d                               ",
"                                            ~.y +.C 7.C & & q.n.z.q.G                               ",
"                                                M.z k.>.% & a.J.K.r.b U.                            ",
"                                                { ' Q 7.& & w.L.E.x.{ k                             ",
"                                                c h : t 6 Y - r.z.r.S ;                             ",
"                                                % s & 3 O.  $.g A A a E                             ",
"                                                o & s s O.    $ % & & W                             ",
"                                                b 3 O $       %.d _ A ;                             ",
"                                              9 s.{ a F         F l.c.A H                           ",
"                                              V.w.g G           I K.H.S k                           ",
"                                                4 & O.          F ` G 9 & I.                        ",
"                                                                                                    ",
"                                                                                                    ",
"                                                                                                    ",
"                                                                                                    ",
"                                                                                                    ",
"                                                                                                    ",
"                                                                                                    ",
"                                                                                                    ",
"                                                                                                    ",
"                                                                                                    ",
"                                                                                                    "
};
