/* XPM */
static char *wall501679190024[] = {
/* columns rows colors chars-per-pixel */
"50 50 233 2 ",
"   c #7B1F23",
".  c #742424",
"X  c #7C2325",
"o  c #752C2B",
"O  c #7A2B2A",
"+  c #772728",
"@  c #7D312E",
"#  c #74302E",
"$  c #7B2C30",
"%  c #7B3332",
"&  c #7F3B38",
"*  c #783734",
"=  c #6E2D2B",
"-  c #7C423B",
";  c #7E4943",
":  c #832728",
">  c #852C2C",
",  c #8B2D2C",
"<  c #862826",
"1  c #922F2C",
"2  c #83322E",
"3  c #8C322E",
"4  c #8F382F",
"5  c #92312E",
"6  c #9C3B2F",
"7  c #98382E",
"8  c #8B2F31",
"9  c #842D30",
"0  c #843432",
"q  c #8C3332",
"w  c #833A35",
"e  c #8C3A34",
"r  c #833D3A",
"t  c #8D3B38",
"y  c #933432",
"u  c #993635",
"i  c #943A34",
"p  c #9B3C34",
"a  c #953D38",
"s  c #9A3E3A",
"d  c #902F31",
"f  c #A13E37",
"g  c #A03D2F",
"h  c #84423D",
"j  c #8A433D",
"k  c #8A453B",
"l  c #9D4235",
"z  c #94433B",
"x  c #9D433B",
"c  c #9E493C",
"v  c #964036",
"b  c #9F513F",
"n  c #A34334",
"m  c #A54836",
"M  c #A2443C",
"N  c #A9463B",
"B  c #A44C3C",
"V  c #AA4C3D",
"C  c #A84A37",
"Z  c #A4523D",
"A  c #AB513C",
"S  c #AF593E",
"D  c #B2553E",
"F  c #854641",
"G  c #8B4640",
"H  c #834B41",
"J  c #8C4C43",
"K  c #934C42",
"L  c #9B4C42",
"P  c #835045",
"I  c #8B5346",
"U  c #85564A",
"Y  c #8B544A",
"T  c #86594C",
"R  c #8B5A4C",
"E  c #915146",
"W  c #94554A",
"Q  c #935D4E",
"!  c #9C5B4E",
"~  c #9D554A",
"^  c #995F50",
"/  c #8D5C50",
"(  c #A44C42",
")  c #A94D42",
"_  c #A34640",
"`  c #A45344",
"'  c #AB5344",
"]  c #AB5B45",
"[  c #AB5649",
"{  c #A55C4D",
"}  c #AB5B4A",
"|  c #A55648",
" . c #B25443",
".. c #B35C45",
"X. c #BA5C45",
"o. c #B35D4A",
"O. c #B75848",
"+. c #A85E52",
"@. c #B34F41",
"#. c #8E6253",
"$. c #936353",
"%. c #9B6454",
"&. c #966955",
"*. c #9B6955",
"=. c #966A5A",
"-. c #9C6C5B",
";. c #906759",
":. c #9D715D",
">. c #AD634A",
",. c #A9644A",
"<. c #B26146",
"1. c #BD6346",
"2. c #B3654B",
"3. c #BB644B",
"4. c #B4694C",
"5. c #BC6A4C",
"6. c #B96846",
"7. c #BB704E",
"8. c #A46354",
"9. c #A66B56",
"0. c #A46B5B",
"q. c #AB6858",
"w. c #B46652",
"e. c #B46C54",
"r. c #BC6D53",
"t. c #B56857",
"y. c #A4735D",
"u. c #AA755B",
"i. c #AC795D",
"p. c #A77356",
"a. c #B47455",
"s. c #BA7354",
"d. c #BC7856",
"f. c #B4745B",
"g. c #BA755A",
"h. c #B57B5B",
"j. c #BB7C5B",
"k. c #B67857",
"l. c #9E7560",
"z. c #9A6F60",
"x. c #A57662",
"c. c #A47B64",
"v. c #AB7D63",
"b. c #AA7A66",
"n. c #B47C63",
"m. c #BB7D63",
"M. c #B47F69",
"N. c #B77662",
"B. c #C1664C",
"V. c #C26C4D",
"C. c #C16E50",
"Z. c #C47353",
"A. c #C37C5B",
"S. c #C87A57",
"D. c #C5704E",
"F. c #C37E61",
"G. c #C97F63",
"H. c #BB815E",
"J. c #AC8365",
"K. c #AC846A",
"L. c #AD896C",
"P. c #A4846E",
"I. c #B38364",
"U. c #BB8362",
"Y. c #BC8965",
"T. c #B4846C",
"R. c #BC836A",
"E. c #B48A6B",
"W. c #BB8C6B",
"Q. c #B68865",
"!. c #BC916D",
"~. c #AB8A73",
"^. c #A78B74",
"/. c #B48C72",
"(. c #BB8D73",
"). c #B58873",
"_. c #AF9278",
"`. c #B69273",
"'. c #BB9374",
"]. c #B5957B",
"[. c #BB947B",
"{. c #BC9A7C",
"}. c #B99977",
"|. c #BDA07F",
" X c #C3825D",
".X c #CB845D",
"XX c #CB8257",
"oX c #D1835C",
"OX c #C28463",
"+X c #C48A66",
"@X c #CA8B65",
"#X c #C2856B",
"$X c #C38D6C",
"%X c #CA8865",
"&X c #C4926C",
"*X c #CB946D",
"=X c #CF966B",
"-X c #D59466",
";X c #D3956A",
":X c #D9996D",
">X c #C48C73",
",X c #C39472",
"<X c #C39A74",
"1X c #CB9A73",
"2X c #C4947A",
"3X c #C39C7A",
"4X c #C99B79",
"5X c #CA9674",
"6X c #D29C76",
"7X c #C4A17C",
"8X c #CCA37C",
"9X c #D2A47C",
"0X c #D1A87E",
"qX c #BC9E82",
"wX c #B79A82",
"eX c #BCA385",
"rX c #C39D81",
"tX c #C3A383",
"yX c #CBA681",
"uX c #CAAC8B",
"iX c #C7A986",
"pX c #D3AC84",
"aX c #D4A987",
"sX c #CCB28C",
"dX c #D5B28A",
"fX c #CBB594",
"gX c #D4B993",
"hX c #D4BE9B",
"jX c #D5B692",
"kX c #C8AF91",
"lX c #E2BF95",
"zX c #E2C49B",
"xX c #D9C3A2",
/* pixels */
"aX8X,X`.}.|.3X}.'.<X7XsXhXhXuX7X<X<X|.tXeX'.Q.W.{.qX}.&X!.!.&X8XaXaX4XW.!.}.qX].E.I.].eXeX{.E.I.!.4X",
"#XF.j.n.R.&X$X@X$X%X*XyXfXhX8X*X+X@X+X&XR.N.s.$X3X3X&XA.A.j.A.%X%X%Xm.k.f.T.).n.g.j.$X7XtX5XU.a.j. X",
"A V ' O.w.r.C.C.C.C.S.*XpXdX*XS.Z.S.Z.w.+.O.@.G.9X;XA.B.B.X.X.X.O... .' ' | +.[  .X.S.1XyX%XC.X.O.O.",
"x M M M M L M c ( ) o.r.$X4XA.3.o.3.o.( x s M F.6XF.o.N N ( M x M M s s x M ( L M ( 3.A.>Xr.@.) M x ",
"y u y q d d y y y u f [ N.>Xw.) _ ) _ u y d d t.>Xt.B u u y y y y y y y u u p y y u _ t.#Xo.f u y y ",
"y q 0 > 0 d y d y , y ` M.(.' p u u u d d d , +.R.f.L y y y y q 8 y y y d d y y 1 1 L f.).+.y d d y ",
"G F ; ; F r j j G j E x.wXrX0.J F F F G F r j -.[.[.x.Q E E J F j j J J G r j k G J 0./.tXb.W F j K ",
"%.$.$.&.=.&.=.=.&.8.x.(.rXrXJ.-.%.=.-.z.*.$.-.T.rXtX[.b.x.z.z.;.$.-.-.z.=.=.=.-.*.8.J.3XiX).l.Q ^ %.",
"a.h.H.H.U.`.|.}.Q.OX@X=X@X+X XH.Y.!.|.eX}.Y.&X4X6X;X-X&X'.(.U.U.U.OXOX$X'.qXeX!.H.k.H. X XW.R.u.a.k.",
"c Z Z Z >.H.7X<Xa.6.3.6.1.<.<.<.6.j.1X0XH.,.>.w.3.B.1.2.,.{ ] <.6.2.<.3.H.7X7Xk.Z m Z Z Z ` ~ Z c Z ",
", 3 5 , i >.+XOXV n 6 6 p 6 7 7 g S j.&X>.6 7 7 u 6 g 6 5 3 y n n n 7 l <.+X,XA 4 < , < < , , , 1 , ",
", 3 3 < q ` g.f.6 , , , 3 3 3 > , p >.m.` 3 , 3 3 5 , , , y i x p 7 5 7 ` g.T.x 1 3 , , , , 8 q , > ",
"X < < X > b N.q.3 X X O > , < X X e 8.T.L < X . X X X : : 2 4 4 4 2 2 3 ` m.E.v   . . X X : X > X X ",
"+ O # + w Q ).K.j O O 0 w v e 2 @ z u.'.^ @ + . = # % # + @ 2 k k k 4 k 0.'.[.W # . = + O o o O O O ",
"U T U ; #.L.tX3X:.R R -.:.:.:.*.$.c.{.uX~.;.U U R ;.=.;.#.#.&.=.:.:.&.:.`.kXgX~.:.#.&.#.R T R Y T T ",
"^.J.p.p.u.Y.5X5XE.v.v.'.|.{.'.Q.U.$X4X9X'.L.c.i.h.Q.Q.J.J.I.L._._.`.Q.Y.8XdXdX7X!.!.!.Q.K.c.i.h.J.J.",
"sX4XS.D.V.D.V.Z.F.G.%X9XjXjX=X.XoXoXoXoX#X#Xm.F.S.oX%XG..X%X1XiXiX1X-X;X;X-X-X:X:X:X:X:X*X%XG.S.-X6X",
"8XOXO. .O.O. .V ) [ r.#X9XyXA.B.B.B.X...' ( ( ) ) ) o.o.B.5.j.5X5Xg.r.C.Z.S.G.Z.Z.S.Z.C.r.B.B.B.V.S.",
"1Xt.f f M f u u u s ) g.*X>Xo.V V N N x u y y y u y s N V V o.#XG.[ ) [ [ o.o.O.O.O.) _ ) @.@. .' D ",
">Xq.u y y 3 y y s s ( w.R.#X) u q q y y y y u u y 8 8 y y s [ m.N.f s s f ( ) ) L x L s f N V N m M ",
"rXb.L q w * r j x z L 0.'.[.! w # * % 0 0 q q 0 0 * * * o h 8.[.T.K t 9 q i t w & r H h w t e q K { ",
"tX'.0.W R #.&.-.9.! %.T.7X7X0.P ; ; U J J J k I I - h h - W v.rX{.0.W J I Y J H ; P T R Y H G J %.b.",
"8X8XtX!.'.tXkXfX7XW.Y.<X8X8XH.J.p.E._.^.L.i.p.i.K.i.i.k.p.H.5X4X4XW.T.E./.^.^.K.J.i.i.I.K.c.c.I.Y.>X",
"a.j.R.h.R.4XjXuX$Xj.s.s.d.d.k.4.>.m.(.].v.,.] 8.p.,.,.<.,.2.e.s.s.4.u.n.(.3XqXI.e.w.>.4.N.f.f.>.4.e.",
"n B | A ] g.2X>X} A A C C Z C m n ] m.(.,.7 6 v z B C n n g n n n l l Z s.>X2X2.m n p l B ' ( n p p ",
"y i y y i | M.g.l u l l v i 6 4 i ( t.R.' 1 1 < 3 p s l p p 7 p v 4 4 7 ' m.(.( 3 > > > q q q q , > ",
"> 0 2 O r %.).T.z q e e w & w k 0 ~ M.2X8.e 2 > > i v v v i i v k @ @ 0 W T.(.L O + o o + O o $ o $ ",
"- F h r Y b.tXwX%.I k k h P I k k *./.uXK.W J j k E E E I E J I I P - h y.[.rX=.- * * - & - - & - - ",
"x.P.P.c.K.3XsXuX/.J.c.~.wXwX].L.c.E.7XtX`.J.I.E.L.^.L.K.J.K.L.K.J.L.K.L.3XuXiX].J.:.x.~.~.~.K.c.l.l.",
"h.T.'.Q.R.&X6X1X$XOX&XiXhXxXpX&XH.OX+X@XOXU.U.'.tXeX}.I.H.W.}.!.$X&X&X*X6X6X4X4XQ.h.'.uXgXyX,XR.U.I.",
"] w.g.r.3.3.3.C.Z.D.S.:XlXzX;XZ.1.X.1.B.V.1.D g.5X7XH.<...r..XS.Z.Z.Z.S.Z.Z.S.m.5.X..X0XlX@XV.5.5.B.",
"s c ( ' ) c ( ' [ ..3.G.rXaXs.B x p m  .V M 7 +.Y.A.<.l s c ( c M )  . .' A ' } ) B .. X1Xe.C C V V ",
"8 8 y a i q t a L f ( w.>X2X[ y > > y s i 8 9 ~ N.w.V y 8 8 9 > 9 q s u u y y a a u M e.R.| 5 y y y ",
", > > > > , q a x s x t.>X4X} y > 2 8 , 8 , 9 ~ N.t.( y 8 9 O 0 % q 8 8 8 > 8 q q y c t.R.| 3 , > , ",
"h h r h h w w h F G W b.tXuXb.E h j h h r r & ^ ).(.y.J w * & ;.z.Y F * & & r r r j %.).rXy.J r h h ",
"Q Q Q Q Q Q #.#.Q Q 0./.uXsX].b.0.:.:.:.&.Q Y -.`.tX/.-.Y U $.L.].x.Q Y R $.$.Q Y Q v.qXuX/.&.I I Q ",
"j.s.d.d.U.[.eX{.Q.h.j.OX*X5XrX4X&X3XuXsX3XH.a.j. XOXOXj.j.h.j.j.j.h.a.u.E.{.eXQ.j.a.OX*X4X(.I.a.a.a.",
"] ] ] ' 4.$XiX8Xj.>.' } 3.t.N.f.s.$XpXgX1XZ.2.] ] ..3.C.e.3.<.] ' ' A ,.H.8XpXH.>.] 5.s.f.w.{ A ` ' ",
"3 y y , v e.&X+XA u y p x _ c s c e.=X0X XD n u y i m V V N p u i y 5 p 4.&X1X} u 7 M ) ( s y 7 y 1 ",
"u y q 8 a ] U.j.n y y u s a a s _ o.m.5Xs.V s q q q u s f M x M c M s s ] R.>X' i i c ( ( M x x a i ",
"y q 8 , t ~ N.u.a , 9 % > 3 q q a | N.2Xq.p > O $ 9 > 8 q i x x c M s s [ M.2X| y t x x x x x x a i ",
"t w 0 2 z 0.(.T.K % o o o @ 0 O 0 ! M.rX0.t o = = @ @ @ # w z x x z i z q.'.rX8.j j K z k z z z z z ",
"z.-.=.=.x.wXsXiXK.=.#.;.$./ / T Q v.qXsX/.-.R T #.;.$.$.=.-.:.y.-.-.$.*.).tXuXL.-.-.:.x.-.y.y.x.:.z.",
"eX].E.T.W.yXpXyX'.I.J.E._.~.x.y.p.Q.2X5X(.v.p.y.x.i.i.v.E.`.].{.wXL.y.x.(.rX4XQ.v.b.K.I.v.v.J.E.!.}.",
"hXyX+XZ.A..X.XXXXXZ.d.$XyXpXY.4.6.D.7.6.4.4.4.6.5.V.7.Z.A.+X0XgXsX+X5.6.g.g.4.4.e.p.e.5.4.<.4.a.@X0X",
"dX$X<.Z ' ] <.] ..Z C e.&X3X>.B C C m p l l x n m C D D A 2.@X0X4X>.B B B n p p v v v i 4 i v l ] s.",
"4Xt.i 4 7 l M x l 7 7 ` m.$Xc 1 5 7 1 , 5 y 3 5 5 7 6 p 5 M 5.>XU.l 1 5 1 , > , > : : : X : < < i n ",
">X>.5 7 i p M M l l x } R.(.B 3 , < , y M M p u y 5 5 5 5 p } m.f.7 1 1 > , , 5 d 1 d 1 1 y 5 3 y 7 ",
"'.q.q > > 3 i v v 4 v q.,XrX{ e O # 0 e e i e 4 4 2 > , < e { T.b.a > O + O , > , > > , > > > > e L ",
"qXx.w + . # w e v 0 k p.rXuX9.r # * - h w 2 @ 0 0 @ O + . 0 %.`.).k O . o o O + O + + + + O + X h ! "
};
